<svg xmlns="http://www.w3.org/2000/svg" xmlns:xlink="http://www.w3.org/1999/xlink" width="500" zoomAndPan="magnify" viewBox="0 0 375 374.999991" height="500" preserveAspectRatio="xMidYMid meet" version="1.0"><defs><g/></defs><path fill="#361d06" d="M 88.117188 18.265625 C 92.292969 6.617188 107.253906 1.132812 118.179688 9.394531 C 121.105469 11.621094 123.226562 14.445312 124.546875 17.871094 C 132.835938 15.613281 142.085938 19.980469 145.160156 28.414062 C 146.378906 28.410156 147.574219 28.578125 148.746094 28.914062 C 149.917969 29.253906 151.019531 29.746094 152.050781 30.398438 C 153.082031 31.050781 154 31.832031 154.804688 32.746094 C 155.613281 33.660156 156.277344 34.667969 156.792969 35.769531 C 157.5 35.226562 158.25 34.742188 159.039062 34.324219 C 159.828125 33.90625 160.644531 33.558594 161.496094 33.277344 C 162.34375 33 163.210938 32.796875 164.09375 32.667969 C 164.980469 32.535156 165.867188 32.484375 166.761719 32.503906 C 167.652344 32.527344 168.539062 32.625 169.414062 32.796875 C 170.292969 32.972656 171.148438 33.21875 171.980469 33.539062 C 172.816406 33.859375 173.617188 34.246094 174.382812 34.703125 C 175.152344 35.160156 175.875 35.679688 176.550781 36.261719 C 177.375 35.75 178.230469 35.300781 179.113281 34.90625 C 180 34.515625 180.90625 34.183594 181.835938 33.917969 C 182.765625 33.648438 183.710938 33.445312 184.667969 33.308594 C 185.625 33.171875 186.589844 33.097656 187.558594 33.09375 C 188.527344 33.089844 189.488281 33.148438 190.449219 33.277344 C 191.410156 33.402344 192.355469 33.59375 193.289062 33.851562 C 194.222656 34.109375 195.132812 34.429688 196.023438 34.808594 C 196.910156 35.191406 197.769531 35.632812 198.597656 36.132812 C 199.195312 35.636719 199.828125 35.183594 200.492188 34.78125 C 201.15625 34.378906 201.847656 34.027344 202.5625 33.726562 C 203.28125 33.425781 204.015625 33.175781 204.769531 32.984375 C 205.523438 32.792969 206.289062 32.660156 207.0625 32.582031 C 207.835938 32.503906 208.609375 32.484375 209.386719 32.519531 C 210.164062 32.558594 210.933594 32.652344 211.699219 32.804688 C 212.460938 32.957031 213.207031 33.164062 213.9375 33.425781 C 214.671875 33.6875 215.378906 34.003906 216.066406 34.371094 C 219.164062 30.773438 223.980469 30.320312 227.691406 32.148438 L 228.984375 28.328125 C 236.007812 12.328125 256.726562 24.359375 245.96875 38.707031 L 250.4375 36.859375 C 250.597656 36.792969 250.765625 36.757812 250.9375 36.757812 C 251.113281 36.761719 251.277344 36.792969 251.4375 36.859375 C 251.597656 36.929688 251.738281 37.023438 251.863281 37.144531 C 251.984375 37.269531 252.078125 37.410156 252.140625 37.574219 L 254.269531 42.695312 C 254.335938 42.855469 254.367188 43.023438 254.367188 43.199219 C 254.367188 43.371094 254.332031 43.539062 254.265625 43.695312 C 254.199219 43.855469 254.101562 43.996094 253.980469 44.121094 C 253.855469 44.242188 253.714844 44.335938 253.554688 44.398438 L 252.382812 44.890625 C 260.765625 49.785156 269.128906 59.675781 273.984375 71.6875 L 304.695312 148.1875 C 308.976562 158.863281 308.640625 168.6875 302.164062 175.882812 C 304.613281 185.71875 281.910156 195.074219 273.203125 198.660156 L 272.414062 198.984375 L 272.351562 199.011719 C 263.671875 202.613281 240.238281 212.574219 234.886719 203.714844 C 225.214844 203.195312 218.023438 196.492188 213.503906 185.925781 L 187.507812 125.171875 L 161.511719 185.925781 C 156.988281 196.492188 149.796875 203.195312 140.128906 203.714844 C 134.777344 212.574219 111.34375 202.613281 102.664062 199.011719 L 102.597656 198.984375 L 101.808594 198.660156 C 93.105469 195.074219 70.417969 185.71875 72.867188 175.882812 C 66.375 168.6875 66.035156 158.863281 70.320312 148.1875 L 101.03125 71.6875 L 101.054688 71.628906 C 100.375 71.699219 99.691406 71.726562 99.007812 71.710938 C 97 71.65625 95.082031 71.214844 93.25 70.382812 C 92.148438 70.714844 91.027344 70.949219 89.882812 71.082031 C 88.742188 71.214844 87.59375 71.246094 86.445312 71.179688 C 85.296875 71.109375 84.164062 70.9375 83.046875 70.667969 C 81.925781 70.394531 80.839844 70.027344 79.789062 69.5625 C 78.734375 69.101562 77.730469 68.546875 76.777344 67.90625 C 75.820312 67.261719 74.929688 66.542969 74.105469 65.742188 C 73.277344 64.941406 72.527344 64.074219 71.855469 63.144531 C 71.183594 62.210938 70.597656 61.226562 70.101562 60.1875 C 69.601562 59.152344 69.199219 58.078125 68.894531 56.96875 C 68.585938 55.863281 68.378906 54.734375 68.273438 53.589844 C 68.167969 52.445312 68.164062 51.300781 68.257812 50.15625 C 68.355469 49.007812 68.554688 47.882812 68.851562 46.769531 C 69.148438 45.660156 69.542969 44.585938 70.03125 43.542969 C 70.519531 42.503906 71.097656 41.511719 71.761719 40.574219 C 72.425781 39.636719 73.167969 38.761719 73.988281 37.957031 C 74.808594 37.148438 75.695312 36.421875 76.644531 35.769531 C 73.472656 28.136719 78.660156 18.441406 88.117188 18.277344 " fill-opacity="1" fill-rule="nonzero"/><path fill="#f9b32f" d="M 106.34375 190.089844 C 114.132812 193.171875 122.226562 196.683594 130.140625 199.488281 C 144.0625 204.421875 153.550781 197.871094 159.105469 184.902344 L 172.269531 154.136719 C 140.808594 148.613281 111.769531 136.105469 85.355469 117.765625 L 72.75 149.164062 C 67.476562 162.253906 69.5625 173.589844 82.898438 179.9375 C 90.605469 183.605469 98.191406 186.574219 106.34375 190.089844 " fill-opacity="1" fill-rule="nonzero"/><path fill="#f1892d" d="M 92.640625 122.632812 C 90.191406 121.054688 87.761719 119.433594 85.355469 117.765625 L 72.75 149.164062 C 67.476562 162.253906 69.5625 173.589844 82.898438 179.9375 C 90.296875 183.457031 97.597656 186.335938 105.363281 189.667969 C 89.464844 182.441406 73.410156 169.992188 80.902344 151.53125 Z M 113.101562 192.820312 L 115.410156 193.761719 C 114.679688 193.4375 113.941406 193.121094 113.101562 192.820312 Z M 113.101562 192.820312 " fill-opacity="1" fill-rule="nonzero"/><path fill="#c5c4bf" d="M 162.226562 127.460938 C 159.289062 127.617188 156.417969 127.238281 153.617188 126.332031 C 150.816406 125.421875 148.273438 124.042969 145.988281 122.191406 C 127.636719 115.496094 110.371094 106.675781 94.195312 95.730469 L 86.359375 115.273438 C 112.8125 133.691406 141.796875 146.226562 173.328125 151.664062 L 181.65625 132.160156 C 175.171875 130.867188 168.5 129.25 162.210938 127.460938 " fill-opacity="1" fill-rule="nonzero"/><path fill="#999999" d="M 101.609375 100.535156 C 99.113281 98.984375 96.644531 97.382812 94.195312 95.730469 L 86.359375 115.273438 C 88.761719 116.949219 91.191406 118.582031 93.644531 120.167969 Z M 162.226562 127.453125 C 159.289062 127.605469 156.417969 127.230469 153.617188 126.320312 C 150.816406 125.414062 148.273438 124.03125 145.988281 122.179688 C 141.414062 120.523438 136.917969 118.730469 132.496094 116.796875 C 138.789062 132.386719 155.722656 139.476562 173.8125 130.453125 C 169.894531 129.542969 165.996094 128.527344 162.226562 127.460938 Z M 162.226562 127.453125 " fill-opacity="1" fill-rule="nonzero"/><path fill="#f5e3b9" d="M 142.355469 76.914062 C 143.507812 78.191406 141.5625 79.941406 140.398438 78.660156 C 138.855469 77.007812 137.710938 75.117188 136.96875 72.984375 C 136.570312 73.328125 136.195312 73.695312 135.84375 74.085938 C 135.492188 74.476562 135.164062 74.886719 134.863281 75.316406 C 134.5625 75.75 134.289062 76.195312 134.042969 76.660156 C 133.796875 77.125 133.578125 77.601562 133.390625 78.09375 C 133.203125 78.582031 133.046875 79.082031 132.921875 79.59375 C 132.792969 80.101562 132.699219 80.621094 132.636719 81.140625 C 132.574219 81.664062 132.542969 82.1875 132.546875 82.710938 C 132.546875 83.238281 132.578125 83.761719 132.644531 84.28125 C 132.710938 84.800781 132.808594 85.316406 132.9375 85.828125 C 133.066406 86.335938 133.226562 86.835938 133.417969 87.324219 C 133.609375 87.816406 133.828125 88.292969 134.074219 88.753906 C 134.324219 89.21875 134.601562 89.664062 134.90625 90.09375 C 135.207031 90.519531 135.539062 90.929688 135.890625 91.320312 C 136.246094 91.707031 136.621094 92.074219 137.019531 92.414062 C 137.417969 92.757812 137.835938 93.074219 138.277344 93.367188 C 138.714844 93.65625 139.167969 93.921875 139.636719 94.15625 C 141.40625 95.039062 143.28125 95.488281 145.261719 95.507812 C 146.980469 95.507812 146.960938 98.128906 145.261719 98.117188 C 143.695312 98.101562 142.167969 97.855469 140.675781 97.375 C 140.429688 98.191406 140.230469 99.015625 140.082031 99.855469 C 139.933594 100.695312 139.835938 101.539062 139.789062 102.386719 C 139.742188 103.238281 139.742188 104.089844 139.796875 104.9375 C 139.851562 105.789062 139.957031 106.632812 140.113281 107.46875 C 140.269531 108.304688 140.476562 109.128906 140.730469 109.941406 C 140.984375 110.753906 141.289062 111.550781 141.636719 112.324219 C 141.988281 113.101562 142.382812 113.855469 142.824219 114.582031 C 143.265625 115.3125 143.746094 116.011719 144.273438 116.683594 C 144.796875 117.351562 145.359375 117.992188 145.960938 118.59375 C 146.5625 119.199219 147.195312 119.761719 147.867188 120.292969 C 148.535156 120.820312 149.230469 121.304688 149.960938 121.75 C 150.6875 122.191406 151.4375 122.589844 152.210938 122.945312 C 152.988281 123.300781 153.78125 123.605469 154.59375 123.863281 C 155.40625 124.125 156.230469 124.332031 157.066406 124.496094 C 157.902344 124.65625 158.746094 124.765625 159.597656 124.824219 C 160.445312 124.882812 161.296875 124.890625 162.148438 124.847656 C 162.257812 124.832031 162.363281 124.832031 162.472656 124.847656 C 163.886719 124.753906 165.28125 124.519531 166.652344 124.144531 C 168.019531 123.773438 169.339844 123.269531 170.605469 122.632812 C 171.875 121.996094 173.070312 121.242188 174.1875 120.371094 C 175.304688 119.496094 176.324219 118.519531 177.25 117.441406 C 176.246094 117.484375 175.246094 117.441406 174.25 117.320312 C 172.535156 117.117188 172.855469 114.511719 174.570312 114.722656 C 176.230469 114.933594 177.882812 114.878906 179.527344 114.558594 C 179.71875 114.460938 179.925781 114.417969 180.144531 114.429688 C 190.464844 111.980469 196.101562 99.167969 188.890625 89.746094 C 187.414062 87.820312 185.589844 86.320312 183.417969 85.25 C 181.875 84.484375 183.035156 82.140625 184.578125 82.902344 C 186.199219 83.703125 187.667969 84.722656 188.988281 85.957031 C 189.542969 85.523438 190.058594 85.046875 190.539062 84.527344 C 191.015625 84.007812 191.445312 83.449219 191.832031 82.859375 C 192.21875 82.269531 192.550781 81.648438 192.835938 81.003906 C 193.121094 80.359375 193.347656 79.691406 193.523438 79.007812 C 193.695312 78.324219 193.8125 77.632812 193.871094 76.929688 C 193.929688 76.226562 193.929688 75.523438 193.875 74.820312 C 193.816406 74.117188 193.703125 73.421875 193.53125 72.738281 C 193.359375 72.054688 193.132812 71.386719 192.851562 70.742188 C 192.167969 69.171875 194.566406 68.128906 195.253906 69.695312 C 195.960938 71.316406 196.378906 73.011719 196.507812 74.777344 C 196.957031 74.890625 197.40625 74.976562 197.863281 75.039062 C 198.320312 75.097656 198.78125 75.136719 199.242188 75.152344 C 199.703125 75.164062 200.164062 75.152344 200.625 75.117188 C 201.085938 75.082031 201.542969 75.019531 201.996094 74.9375 C 202.449219 74.851562 202.898438 74.746094 203.339844 74.613281 C 203.78125 74.480469 204.214844 74.328125 204.640625 74.148438 C 205.066406 73.972656 205.480469 73.769531 205.886719 73.550781 C 206.289062 73.328125 206.683594 73.085938 207.0625 72.820312 C 207.4375 72.558594 207.804688 72.273438 208.152344 71.972656 C 208.5 71.671875 208.832031 71.351562 209.144531 71.015625 C 209.460938 70.675781 209.757812 70.324219 210.03125 69.953125 C 210.308594 69.585938 210.566406 69.203125 210.804688 68.808594 C 211.039062 68.410156 211.253906 68.003906 211.445312 67.585938 C 211.640625 67.167969 211.808594 66.738281 211.957031 66.300781 C 212.105469 65.867188 212.226562 65.421875 212.328125 64.972656 C 212.429688 64.523438 212.503906 64.070312 212.558594 63.609375 C 212.585938 63.152344 212.804688 62.820312 213.214844 62.605469 C 213.476562 62.464844 213.757812 62.417969 214.054688 62.46875 C 214.585938 62.550781 215.121094 62.601562 215.660156 62.617188 C 216.195312 62.632812 216.734375 62.617188 217.269531 62.566406 C 217.804688 62.519531 218.335938 62.433594 218.859375 62.320312 C 219.386719 62.203125 219.902344 62.054688 220.410156 61.878906 C 220.914062 61.699219 221.410156 61.488281 221.890625 61.246094 C 222.371094 61.007812 222.835938 60.738281 223.285156 60.441406 C 223.730469 60.140625 224.160156 59.816406 224.566406 59.46875 C 224.972656 59.117188 225.359375 58.742188 225.71875 58.34375 C 226.082031 57.945312 226.417969 57.527344 226.726562 57.085938 C 227.035156 56.648438 227.316406 56.191406 227.570312 55.71875 C 227.820312 55.242188 228.042969 54.753906 228.234375 54.253906 C 228.429688 53.75 228.589844 53.238281 228.71875 52.71875 C 228.847656 52.195312 228.941406 51.667969 229.007812 51.132812 C 229.070312 50.601562 229.101562 50.066406 229.097656 49.527344 C 229.09375 48.992188 229.058594 48.457031 228.988281 47.921875 C 228.921875 47.390625 228.820312 46.863281 228.683594 46.34375 C 228.65625 46.257812 228.640625 46.171875 228.632812 46.082031 C 228.578125 45.707031 228.679688 45.378906 228.945312 45.105469 C 229.230469 44.730469 229.476562 44.332031 229.683594 43.910156 C 229.890625 43.484375 230.050781 43.046875 230.167969 42.589844 C 230.289062 42.132812 230.359375 41.667969 230.382812 41.199219 C 230.410156 40.730469 230.386719 40.261719 230.316406 39.796875 C 230.25 39.328125 230.132812 38.875 229.972656 38.433594 C 229.8125 37.988281 229.609375 37.566406 229.367188 37.164062 C 229.121094 36.761719 228.839844 36.386719 228.519531 36.042969 C 228.199219 35.695312 227.847656 35.386719 227.464844 35.109375 C 227.082031 34.835938 226.675781 34.597656 226.246094 34.40625 C 225.816406 34.210938 225.375 34.0625 224.914062 33.957031 C 224.453125 33.851562 223.988281 33.792969 223.519531 33.78125 C 223.046875 33.769531 222.578125 33.804688 222.113281 33.886719 C 221.648438 33.96875 221.199219 34.09375 220.761719 34.265625 C 220.320312 34.4375 219.902344 34.652344 219.507812 34.90625 C 219.113281 35.164062 218.746094 35.457031 218.410156 35.785156 C 218.070312 36.113281 217.769531 36.472656 217.503906 36.863281 C 217.324219 37.148438 217.070312 37.332031 216.742188 37.414062 C 216.367188 37.519531 216.023438 37.460938 215.707031 37.238281 C 215.152344 36.882812 214.574219 36.566406 213.972656 36.296875 C 213.367188 36.023438 212.75 35.800781 212.113281 35.625 C 211.476562 35.449219 210.828125 35.320312 210.171875 35.242188 C 209.515625 35.164062 208.859375 35.136719 208.199219 35.15625 C 207.539062 35.179688 206.882812 35.25 206.234375 35.371094 C 205.582031 35.492188 204.949219 35.664062 204.324219 35.882812 C 203.699219 36.097656 203.097656 36.363281 202.511719 36.671875 C 201.929688 36.984375 201.371094 37.335938 200.84375 37.730469 C 201.503906 38.257812 202.128906 38.828125 202.71875 39.4375 C 203.917969 40.664062 202.046875 42.492188 200.84375 41.257812 C 200.375 40.777344 199.878906 40.328125 199.359375 39.902344 C 198.839844 39.476562 198.300781 39.082031 197.738281 38.714844 C 197.175781 38.347656 196.59375 38.015625 195.996094 37.710938 C 195.398438 37.410156 194.78125 37.140625 194.15625 36.90625 C 193.527344 36.667969 192.886719 36.46875 192.238281 36.304688 C 191.585938 36.136719 190.929688 36.007812 190.265625 35.914062 C 189.601562 35.820312 188.933594 35.761719 188.261719 35.742188 C 187.589844 35.71875 186.921875 35.734375 186.25 35.785156 C 185.582031 35.839844 184.917969 35.925781 184.257812 36.050781 C 183.597656 36.175781 182.949219 36.335938 182.304688 36.53125 C 181.664062 36.726562 181.035156 36.957031 180.417969 37.222656 C 179.800781 37.484375 179.199219 37.78125 178.617188 38.113281 C 178.03125 38.441406 177.46875 38.804688 176.921875 39.195312 C 176.378906 39.585938 175.855469 40.003906 175.355469 40.453125 C 174.859375 40.902344 174.386719 41.375 173.9375 41.878906 C 173.492188 42.378906 173.070312 42.898438 172.683594 43.445312 C 171.703125 44.839844 169.554688 43.324219 170.550781 41.929688 C 171.636719 40.402344 172.90625 39.046875 174.351562 37.859375 C 173.933594 37.535156 173.492188 37.238281 173.035156 36.964844 C 172.578125 36.695312 172.105469 36.449219 171.617188 36.238281 C 171.128906 36.023438 170.628906 35.839844 170.121094 35.6875 C 169.609375 35.535156 169.09375 35.414062 168.566406 35.324219 C 168.042969 35.234375 167.515625 35.175781 166.980469 35.152344 C 166.449219 35.128906 165.917969 35.136719 165.386719 35.175781 C 164.855469 35.214844 164.332031 35.289062 163.808594 35.394531 C 163.285156 35.5 162.773438 35.632812 162.265625 35.800781 C 161.761719 35.96875 161.269531 36.167969 160.789062 36.394531 C 160.308594 36.625 159.839844 36.878906 159.390625 37.164062 C 158.941406 37.449219 158.511719 37.761719 158.101562 38.097656 C 157.6875 38.4375 157.300781 38.796875 156.933594 39.183594 C 156.566406 39.570312 156.222656 39.976562 155.90625 40.402344 C 155.589844 40.828125 155.296875 41.273438 155.035156 41.738281 C 154.773438 42.199219 154.539062 42.675781 154.335938 43.167969 C 154.132812 43.660156 153.957031 44.160156 153.816406 44.675781 C 153.800781 44.753906 153.78125 44.832031 153.75 44.910156 C 153.71875 45.050781 153.683594 45.191406 153.652344 45.335938 C 153.234375 47.210938 153.234375 49.082031 153.652344 50.957031 C 154.027344 52.636719 151.472656 53.199219 151.101562 51.519531 C 150.722656 49.820312 150.628906 48.105469 150.828125 46.378906 C 144.335938 48.925781 139.867188 53.488281 138.515625 60.121094 C 137.378906 65.621094 138.515625 72.300781 141.808594 76.273438 C 141.953125 76.449219 142.140625 76.664062 142.371094 76.917969 " fill-opacity="1" fill-rule="nonzero"/><path fill="#c5c4bf" d="M 231.699219 50.625 L 251.347656 42.492188 L 250.21875 39.773438 L 241.125 43.539062 C 241.035156 43.589844 240.941406 43.628906 240.839844 43.65625 L 231.601562 47.519531 C 231.746094 48.558594 231.785156 49.601562 231.722656 50.648438 " fill-opacity="1" fill-rule="nonzero"/><path fill="#c5c4bf" d="M 236.777344 42.515625 L 239.84375 41.25 C 256.386719 27.769531 236.90625 15.683594 231.382812 29.4375 L 229.949219 33.699219 C 230.738281 34.414062 231.386719 35.234375 231.890625 36.171875 C 232.394531 37.105469 232.726562 38.097656 232.886719 39.148438 C 233.359375 39.152344 233.8125 39.242188 234.253906 39.40625 C 234.695312 39.574219 235.089844 39.8125 235.445312 40.121094 C 235.800781 40.429688 236.09375 40.789062 236.320312 41.199219 C 236.546875 41.613281 236.699219 42.050781 236.769531 42.515625 " fill-opacity="1" fill-rule="nonzero"/><path fill="#ffffff" d="M 232.320312 44.359375 L 233.992188 43.671875 C 234.007812 43.617188 234.027344 43.566406 234.054688 43.519531 C 234.140625 43.328125 234.175781 43.132812 234.164062 42.925781 C 234.148438 42.714844 234.089844 42.523438 233.976562 42.347656 C 233.867188 42.171875 233.722656 42.03125 233.539062 41.929688 C 233.359375 41.824219 233.164062 41.773438 232.957031 41.765625 C 232.839844 42.65625 232.625 43.519531 232.320312 44.359375 " fill-opacity="1" fill-rule="nonzero"/><path fill="#f9b32f" d="M 186.085938 121.847656 L 183.585938 116.007812 C 182.722656 116.375 181.832031 116.675781 180.921875 116.90625 C 179.414062 119.164062 177.574219 121.109375 175.398438 122.734375 C 173.222656 124.363281 170.839844 125.582031 168.242188 126.390625 C 173.035156 127.644531 177.742188 128.71875 182.722656 129.703125 Z M 186.085938 121.847656 " fill-opacity="1" fill-rule="nonzero"/><path fill="#f1892d" d="M 186.085938 121.847656 L 183.585938 116.007812 C 182.722656 116.375 181.832031 116.675781 180.921875 116.90625 C 179.414062 119.164062 177.574219 121.109375 175.398438 122.734375 C 173.222656 124.363281 170.839844 125.582031 168.242188 126.390625 C 171.246094 127.179688 174.214844 127.894531 177.238281 128.558594 C 180.40625 126.609375 183.355469 124.375 186.085938 121.847656 " fill-opacity="1" fill-rule="nonzero"/><path fill="#f9b32f" d="M 202.742188 154.136719 L 215.921875 184.902344 C 221.472656 197.871094 230.96875 204.421875 244.886719 199.488281 C 252.804688 196.683594 260.898438 193.171875 268.683594 190.089844 C 276.839844 186.574219 284.417969 183.605469 292.128906 179.9375 C 305.464844 173.578125 307.539062 162.253906 302.28125 149.164062 L 289.675781 117.765625 C 263.21875 136.109375 234.261719 148.601562 202.757812 154.136719 " fill-opacity="1" fill-rule="nonzero"/><path fill="#f1892d" d="M 253.273438 196.304688 C 258.449219 194.253906 263.621094 192.082031 268.667969 190.078125 C 276.824219 186.566406 284.402344 183.59375 292.113281 179.929688 C 305.449219 173.566406 307.523438 162.246094 302.265625 149.152344 L 289.660156 117.757812 C 286.996094 119.601562 284.304688 121.390625 281.589844 123.117188 L 290.816406 146.609375 C 301.941406 174.9375 280.8125 184.324219 253.273438 196.3125 " fill-opacity="1" fill-rule="nonzero"/><path fill="#c5c4bf" d="M 193.34375 132.160156 L 201.671875 151.664062 C 233.15625 146.238281 262.253906 133.683594 288.640625 115.273438 L 280.800781 95.730469 C 267.59375 104.671875 253.625 112.207031 238.898438 118.339844 C 224.171875 124.472656 208.980469 129.078125 193.328125 132.160156 " fill-opacity="1" fill-rule="nonzero"/><path fill="#999999" d="M 280.621094 120.648438 C 283.324219 118.917969 286.003906 117.121094 288.660156 115.265625 L 280.820312 95.722656 C 278.191406 97.492188 275.535156 99.207031 272.859375 100.867188 Z M 280.621094 120.648438 " fill-opacity="1" fill-rule="nonzero"/><path fill="#f9b32f" d="M 185.925781 114.820312 L 192.292969 129.703125 C 207.964844 126.652344 223.171875 122.058594 237.910156 115.921875 C 252.648438 109.78125 266.617188 102.226562 279.816406 93.25 L 271.558594 72.667969 C 266.59375 60.398438 257.75 50.320312 249.265625 46.179688 L 231.199219 53.65625 C 230.960938 54.527344 230.65625 55.371094 230.273438 56.1875 C 229.890625 57.003906 229.441406 57.78125 228.925781 58.523438 C 228.410156 59.261719 227.835938 59.953125 227.199219 60.59375 C 226.5625 61.234375 225.878906 61.816406 225.144531 62.335938 C 224.40625 62.859375 223.632812 63.316406 222.816406 63.703125 C 222.003906 64.09375 221.160156 64.40625 220.292969 64.652344 C 219.421875 64.894531 218.539062 65.0625 217.640625 65.152344 C 216.742188 65.242188 215.84375 65.253906 214.941406 65.191406 C 214.839844 65.695312 214.714844 66.191406 214.566406 66.683594 C 214.414062 67.175781 214.242188 67.65625 214.042969 68.132812 C 213.847656 68.605469 213.625 69.070312 213.382812 69.523438 C 213.140625 69.972656 212.875 70.414062 212.585938 70.839844 C 212.300781 71.265625 211.992188 71.679688 211.664062 72.074219 C 211.335938 72.46875 210.992188 72.847656 210.625 73.210938 C 210.261719 73.574219 209.878906 73.917969 209.480469 74.242188 C 209.082031 74.566406 208.667969 74.867188 208.238281 75.152344 C 207.8125 75.4375 207.371094 75.699219 206.914062 75.9375 C 206.460938 76.179688 205.996094 76.394531 205.519531 76.589844 C 205.042969 76.785156 204.558594 76.953125 204.066406 77.101562 C 203.574219 77.246094 203.074219 77.367188 202.570312 77.464844 C 202.0625 77.5625 201.554688 77.636719 201.042969 77.683594 C 200.53125 77.730469 200.019531 77.753906 199.503906 77.75 C 198.988281 77.746094 198.476562 77.71875 197.964844 77.664062 C 197.453125 77.609375 196.945312 77.53125 196.441406 77.425781 C 196.21875 79.472656 195.613281 81.402344 194.625 83.207031 C 193.640625 85.015625 192.34375 86.566406 190.742188 87.863281 C 196.738281 95.429688 196.074219 107.164062 187.535156 113.6875 C 187.007812 114.089844 186.464844 114.460938 185.90625 114.804688 " fill-opacity="1" fill-rule="nonzero"/><path fill="#f1892d" d="M 271.882812 98.417969 C 274.550781 96.757812 277.195312 95.042969 279.816406 93.269531 L 271.558594 72.6875 C 266.59375 60.417969 257.75 50.34375 249.265625 46.203125 L 231.199219 53.65625 C 230.960938 54.527344 230.65625 55.371094 230.273438 56.1875 C 229.890625 57.003906 229.441406 57.78125 228.925781 58.523438 C 228.410156 59.261719 227.835938 59.953125 227.199219 60.59375 C 226.5625 61.234375 225.878906 61.816406 225.144531 62.335938 C 224.40625 62.859375 223.632812 63.316406 222.816406 63.703125 C 222.003906 64.09375 221.160156 64.40625 220.292969 64.652344 C 219.421875 64.894531 218.539062 65.0625 217.640625 65.152344 C 216.742188 65.242188 215.84375 65.253906 214.941406 65.191406 C 214.839844 65.695312 214.714844 66.191406 214.566406 66.683594 C 214.414062 67.175781 214.242188 67.65625 214.042969 68.132812 C 213.847656 68.605469 213.625 69.070312 213.382812 69.523438 C 213.140625 69.972656 212.875 70.414062 212.585938 70.839844 C 212.300781 71.265625 211.992188 71.679688 211.664062 72.074219 C 211.335938 72.46875 210.992188 72.847656 210.625 73.210938 C 210.261719 73.574219 209.878906 73.917969 209.480469 74.242188 C 209.082031 74.566406 208.667969 74.867188 208.238281 75.152344 C 207.8125 75.4375 207.371094 75.699219 206.914062 75.9375 C 206.460938 76.179688 205.996094 76.394531 205.519531 76.589844 C 205.042969 76.785156 204.558594 76.953125 204.066406 77.101562 C 203.574219 77.246094 203.074219 77.367188 202.570312 77.464844 C 202.0625 77.5625 201.554688 77.636719 201.042969 77.683594 C 200.53125 77.730469 200.019531 77.753906 199.503906 77.75 C 198.988281 77.746094 198.476562 77.71875 197.964844 77.664062 C 197.453125 77.609375 196.945312 77.53125 196.441406 77.425781 C 196.21875 79.472656 195.613281 81.402344 194.625 83.207031 C 193.640625 85.015625 192.34375 86.566406 190.742188 87.863281 C 190.742188 87.863281 209.035156 90.164062 218.929688 71.191406 C 228.605469 68.96875 232.5 65.320312 239.015625 58.519531 C 246.070312 51.179688 256.972656 61.09375 260.230469 68.796875 Z M 271.882812 98.417969 " fill-opacity="1" fill-rule="nonzero"/><path fill="#f9b32f" d="M 104.222656 70.9375 L 103.476562 72.667969 L 95.195312 93.25 C 109.8125 103.191406 125.351562 111.382812 141.816406 117.824219 C 140.691406 116.308594 139.757812 114.679688 139.015625 112.9375 C 138.277344 111.199219 137.75 109.398438 137.441406 107.53125 C 137.128906 105.667969 137.039062 103.792969 137.175781 101.90625 C 137.308594 100.023438 137.664062 98.179688 138.234375 96.378906 C 137.660156 96.078125 137.101562 95.738281 136.566406 95.367188 C 136.03125 94.996094 135.523438 94.59375 135.039062 94.15625 C 134.554688 93.71875 134.101562 93.253906 133.675781 92.761719 C 133.25 92.269531 132.855469 91.75 132.496094 91.207031 C 132.136719 90.664062 131.8125 90.101562 131.527344 89.515625 C 131.238281 88.933594 130.988281 88.332031 130.773438 87.71875 C 130.5625 87.101562 130.390625 86.476562 130.257812 85.835938 C 130.125 85.199219 130.03125 84.558594 129.980469 83.90625 C 129.929688 83.257812 129.917969 82.609375 129.949219 81.957031 C 129.980469 81.308594 130.050781 80.664062 130.164062 80.019531 C 130.273438 79.378906 130.425781 78.75 130.617188 78.125 C 130.8125 77.503906 131.042969 76.894531 131.3125 76.304688 C 131.578125 75.710938 131.886719 75.136719 132.226562 74.582031 C 132.570312 74.027344 132.945312 73.496094 133.351562 72.988281 C 133.761719 72.484375 134.199219 72.003906 134.671875 71.550781 C 135.140625 71.101562 135.636719 70.679688 136.160156 70.292969 C 135.636719 68.1875 135.398438 66.054688 135.457031 63.890625 C 135.511719 61.722656 135.851562 59.605469 136.480469 57.53125 C 135.28125 57.917969 134.054688 58.121094 132.792969 58.148438 C 131.535156 58.171875 130.296875 58.011719 129.082031 57.671875 C 127.871094 57.332031 126.730469 56.828125 125.667969 56.152344 C 124.605469 55.476562 123.660156 54.660156 122.835938 53.710938 C 121.6875 54.808594 120.375 55.660156 118.902344 56.265625 C 117.429688 56.871094 115.894531 57.1875 114.304688 57.21875 C 114.28125 57.972656 114.203125 58.722656 114.066406 59.464844 C 113.929688 60.207031 113.738281 60.933594 113.492188 61.648438 C 113.246094 62.363281 112.949219 63.054688 112.597656 63.722656 C 112.246094 64.390625 111.847656 65.027344 111.398438 65.636719 C 110.953125 66.246094 110.460938 66.816406 109.925781 67.351562 C 109.394531 67.886719 108.824219 68.375 108.214844 68.824219 C 107.605469 69.273438 106.96875 69.671875 106.300781 70.023438 C 105.632812 70.375 104.941406 70.675781 104.226562 70.921875 " fill-opacity="1" fill-rule="nonzero"/><path fill="#f1892d" d="M 104.222656 70.9375 L 103.476562 72.667969 L 95.195312 93.25 C 97.644531 94.910156 100.117188 96.519531 102.605469 98.078125 L 108.320312 84 C 113.441406 72.40625 123.855469 73.765625 123.855469 73.765625 C 120.785156 88.449219 130.515625 95.257812 130.515625 95.257812 C 129.4375 101.960938 129.8125 108.101562 131.339844 113.433594 C 134.78125 114.976562 138.273438 116.445312 141.816406 117.839844 C 140.691406 116.320312 139.757812 114.691406 139.015625 112.953125 C 138.277344 111.214844 137.75 109.410156 137.441406 107.546875 C 137.128906 105.683594 137.039062 103.808594 137.175781 101.921875 C 137.308594 100.039062 137.664062 98.195312 138.234375 96.394531 C 137.660156 96.089844 137.101562 95.753906 136.566406 95.382812 C 136.03125 95.011719 135.523438 94.605469 135.039062 94.171875 C 134.554688 93.734375 134.101562 93.269531 133.675781 92.777344 C 133.25 92.28125 132.855469 91.765625 132.496094 91.222656 C 132.136719 90.679688 131.8125 90.113281 131.527344 89.53125 C 131.238281 88.945312 130.988281 88.347656 130.773438 87.730469 C 130.5625 87.117188 130.390625 86.488281 130.257812 85.851562 C 130.125 85.214844 130.03125 84.570312 129.980469 83.921875 C 129.929688 83.273438 129.917969 82.625 129.949219 81.972656 C 129.980469 81.324219 130.050781 80.675781 130.164062 80.035156 C 130.273438 79.394531 130.425781 78.761719 130.617188 78.140625 C 130.8125 77.519531 131.042969 76.910156 131.3125 76.316406 C 131.578125 75.726562 131.886719 75.152344 132.226562 74.597656 C 132.570312 74.042969 132.945312 73.511719 133.351562 73.003906 C 133.761719 72.496094 134.199219 72.019531 134.671875 71.566406 C 135.140625 71.113281 135.636719 70.695312 136.160156 70.304688 C 135.636719 68.203125 135.398438 66.070312 135.457031 63.902344 C 135.511719 61.738281 135.851562 59.621094 136.480469 57.546875 C 135.28125 57.933594 134.050781 58.136719 132.792969 58.160156 C 131.53125 58.183594 130.292969 58.023438 129.082031 57.683594 C 127.867188 57.339844 126.730469 56.832031 125.667969 56.15625 C 124.601562 55.480469 123.660156 54.664062 122.835938 53.710938 C 121.6875 54.808594 120.375 55.660156 118.902344 56.265625 C 117.429688 56.871094 115.894531 57.1875 114.304688 57.21875 C 114.28125 57.972656 114.203125 58.722656 114.066406 59.464844 C 113.929688 60.207031 113.738281 60.933594 113.492188 61.648438 C 113.246094 62.363281 112.949219 63.054688 112.597656 63.722656 C 112.246094 64.390625 111.847656 65.027344 111.398438 65.636719 C 110.953125 66.246094 110.460938 66.816406 109.925781 67.351562 C 109.394531 67.886719 108.824219 68.375 108.214844 68.824219 C 107.605469 69.273438 106.96875 69.671875 106.300781 70.023438 C 105.632812 70.375 104.941406 70.675781 104.226562 70.921875 " fill-opacity="1" fill-rule="nonzero"/><path fill="#f5e3b9" d="M 89.636719 25.765625 C 89.71875 27.484375 87.113281 27.617188 87.019531 25.898438 C 86.933594 24.21875 87.050781 22.554688 87.382812 20.90625 C 80.214844 21.503906 76.296875 29.476562 79.386719 35.453125 C 79.460938 35.558594 79.523438 35.675781 79.566406 35.796875 C 80.195312 36.890625 80.996094 37.839844 81.980469 38.632812 C 83.300781 39.722656 81.640625 41.738281 80.316406 40.652344 C 79.398438 39.898438 78.59375 39.035156 77.914062 38.0625 C 77.144531 38.601562 76.429688 39.203125 75.761719 39.867188 C 75.097656 40.527344 74.492188 41.238281 73.945312 42 C 73.398438 42.761719 72.917969 43.566406 72.503906 44.410156 C 72.09375 45.25 71.753906 46.121094 71.488281 47.023438 C 71.222656 47.921875 71.03125 48.835938 70.917969 49.769531 C 70.804688 50.699219 70.773438 51.632812 70.816406 52.570312 C 70.859375 53.507812 70.980469 54.433594 71.179688 55.351562 C 71.378906 56.265625 71.652344 57.160156 72.003906 58.03125 C 72.351562 58.902344 72.769531 59.738281 73.261719 60.539062 C 73.75 61.339844 74.300781 62.09375 74.917969 62.800781 C 75.535156 63.511719 76.203125 64.164062 76.929688 64.757812 C 77.652344 65.355469 78.421875 65.886719 79.238281 66.355469 C 80.050781 66.820312 80.898438 67.21875 81.777344 67.542969 C 82.660156 67.867188 83.5625 68.117188 84.484375 68.292969 C 85.40625 68.46875 86.335938 68.566406 87.277344 68.585938 C 88.214844 68.601562 89.148438 68.542969 90.078125 68.40625 C 88.25 66.945312 86.851562 65.148438 85.878906 63.023438 C 85.164062 61.464844 87.539062 60.375 88.253906 61.9375 C 88.816406 63.167969 89.5625 64.277344 90.496094 65.257812 C 91.429688 66.242188 92.5 67.042969 93.703125 67.667969 C 93.855469 67.707031 93.992188 67.777344 94.117188 67.875 C 94.683594 68.144531 95.265625 68.367188 95.863281 68.550781 C 96.464844 68.730469 97.074219 68.863281 97.691406 68.953125 C 98.3125 69.039062 98.933594 69.078125 99.5625 69.070312 C 100.1875 69.0625 100.808594 69.007812 101.425781 68.90625 C 102.042969 68.800781 102.648438 68.652344 103.242188 68.457031 C 103.835938 68.261719 104.414062 68.019531 104.972656 67.738281 C 105.527344 67.453125 106.0625 67.128906 106.570312 66.761719 C 107.078125 66.398438 107.554688 65.996094 108 65.554688 C 108.445312 65.117188 108.855469 64.648438 109.230469 64.144531 C 109.605469 63.644531 109.9375 63.117188 110.230469 62.566406 C 110.523438 62.011719 110.773438 61.441406 110.976562 60.851562 C 111.183594 60.257812 111.34375 59.65625 111.453125 59.042969 C 111.566406 58.425781 111.632812 57.808594 111.648438 57.183594 C 111.667969 56.558594 111.636719 55.933594 111.558594 55.3125 C 111.480469 54.691406 111.355469 54.082031 111.1875 53.480469 C 111.015625 52.878906 110.796875 52.296875 110.535156 51.726562 C 109.824219 50.164062 112.195312 49.078125 112.910156 50.644531 C 113.5 51.914062 113.898438 53.238281 114.113281 54.621094 C 114.757812 54.613281 115.394531 54.546875 116.027344 54.421875 C 116.660156 54.292969 117.273438 54.105469 117.871094 53.863281 C 118.464844 53.617188 119.03125 53.316406 119.570312 52.960938 C 120.109375 52.605469 120.609375 52.203125 121.070312 51.753906 C 121.53125 51.300781 121.941406 50.8125 122.308594 50.28125 C 122.675781 49.75 122.988281 49.191406 123.246094 48.601562 C 123.503906 48.011719 123.703125 47.402344 123.84375 46.773438 C 123.984375 46.144531 124.0625 45.507812 124.082031 44.863281 C 124.121094 43.148438 126.738281 43.210938 126.695312 44.929688 C 126.636719 47.390625 125.917969 49.640625 124.53125 51.679688 C 124.917969 52.167969 125.34375 52.613281 125.8125 53.023438 C 126.28125 53.433594 126.78125 53.800781 127.316406 54.117188 C 127.851562 54.433594 128.410156 54.703125 128.992188 54.917969 C 129.578125 55.132812 130.175781 55.292969 130.789062 55.398438 C 131.402344 55.503906 132.019531 55.554688 132.640625 55.546875 C 133.265625 55.539062 133.882812 55.472656 134.492188 55.355469 C 135.101562 55.234375 135.695312 55.058594 136.273438 54.828125 C 136.851562 54.597656 137.40625 54.320312 137.933594 53.988281 L 137.992188 53.953125 C 139.378906 51.378906 141.238281 49.207031 143.570312 47.441406 C 145.976562 45.640625 148.613281 44.289062 151.480469 43.378906 C 152.164062 41.25 153.253906 39.355469 154.75 37.695312 C 154.414062 36.773438 153.953125 35.917969 153.367188 35.128906 C 152.78125 34.34375 152.097656 33.65625 151.3125 33.066406 C 150.527344 32.476562 149.675781 32.011719 148.753906 31.667969 C 147.832031 31.324219 146.882812 31.121094 145.902344 31.054688 C 146.011719 31.609375 146.09375 32.179688 146.148438 32.761719 C 146.308594 34.46875 143.699219 34.71875 143.546875 33.007812 C 142.609375 23.109375 132.617188 17.734375 124.253906 20.710938 C 124.210938 20.730469 124.171875 20.746094 124.125 20.753906 C 122.265625 21.445312 120.617188 22.46875 119.179688 23.835938 C 117.925781 25.011719 116.132812 23.113281 117.386719 21.929688 C 118.78125 20.609375 120.355469 19.550781 122.109375 18.757812 C 117.871094 7.804688 103.625 4.363281 94.859375 12.671875 C 92.730469 14.679688 91.234375 17.078125 90.359375 19.871094 C 90.347656 19.953125 90.320312 20.035156 90.289062 20.113281 C 89.746094 21.960938 89.53125 23.847656 89.636719 25.765625 " fill-opacity="1" fill-rule="nonzero"/><path fill="#361d06" d="M 232.945312 32.972656 L 234.964844 28.839844 C 235.191406 28.382812 235.496094 27.984375 235.878906 27.648438 C 236.261719 27.3125 236.695312 27.058594 237.179688 26.894531 C 237.660156 26.730469 238.15625 26.664062 238.667969 26.695312 C 239.175781 26.726562 239.660156 26.855469 240.121094 27.078125 C 240.578125 27.304688 240.976562 27.609375 241.316406 27.992188 C 241.652344 28.375 241.90625 28.804688 242.070312 29.289062 C 242.238281 29.769531 242.304688 30.265625 242.273438 30.777344 C 242.242188 31.285156 242.113281 31.769531 241.886719 32.226562 L 239.855469 36.394531 C 239.628906 36.851562 239.320312 37.246094 238.9375 37.582031 C 238.550781 37.917969 238.117188 38.164062 237.632812 38.328125 C 237.148438 38.488281 236.652344 38.554688 236.140625 38.519531 C 235.632812 38.484375 235.148438 38.351562 234.691406 38.125 C 234.234375 37.898438 233.835938 37.59375 233.503906 37.207031 C 233.167969 36.824219 232.917969 36.390625 232.753906 35.90625 C 232.59375 35.421875 232.527344 34.925781 232.5625 34.414062 C 232.597656 33.90625 232.730469 33.421875 232.957031 32.96875 " fill-opacity="1" fill-rule="nonzero"/><path fill="#ffffff" d="M 237.292969 30.050781 L 235.277344 34.171875 C 234.574219 35.640625 236.785156 36.695312 237.488281 35.246094 L 239.523438 31.082031 C 239.597656 30.933594 239.644531 30.777344 239.65625 30.609375 C 239.667969 30.441406 239.648438 30.277344 239.59375 30.121094 C 239.539062 29.960938 239.457031 29.820312 239.34375 29.695312 C 239.230469 29.570312 239.097656 29.476562 238.945312 29.402344 C 238.792969 29.332031 238.636719 29.296875 238.46875 29.289062 C 238.300781 29.285156 238.136719 29.3125 237.980469 29.375 C 237.824219 29.433594 237.6875 29.523438 237.566406 29.640625 C 237.449219 29.757812 237.355469 29.894531 237.292969 30.050781 " fill-opacity="1" fill-rule="nonzero"/><path fill="#361d06" d="M 104.347656 14.164062 C 104.917969 14.164062 105.484375 14.21875 106.042969 14.328125 C 106.601562 14.4375 107.144531 14.601562 107.671875 14.820312 C 108.199219 15.039062 108.703125 15.304688 109.175781 15.621094 C 109.652344 15.9375 110.089844 16.296875 110.492188 16.699219 C 110.898438 17.101562 111.257812 17.539062 111.574219 18.015625 C 111.890625 18.488281 112.160156 18.988281 112.378906 19.515625 C 112.597656 20.039062 112.761719 20.582031 112.871094 21.140625 C 112.984375 21.703125 113.039062 22.265625 113.039062 22.835938 C 113.039062 23.359375 112.992188 23.878906 112.902344 24.390625 C 112.8125 23.898438 112.675781 23.414062 112.5 22.941406 C 112.324219 22.472656 112.109375 22.019531 111.855469 21.582031 C 111.601562 21.148438 111.3125 20.742188 110.984375 20.355469 C 110.660156 19.972656 110.304688 19.621094 109.917969 19.296875 C 109.53125 18.976562 109.117188 18.691406 108.679688 18.441406 C 108.242188 18.191406 107.789062 17.980469 107.316406 17.808594 C 106.839844 17.636719 106.355469 17.507812 105.859375 17.421875 C 105.363281 17.335938 104.863281 17.289062 104.359375 17.289062 C 103.855469 17.289062 103.355469 17.335938 102.859375 17.421875 C 102.363281 17.507812 101.878906 17.636719 101.40625 17.808594 C 100.933594 17.980469 100.476562 18.191406 100.039062 18.441406 C 99.601562 18.691406 99.191406 18.976562 98.804688 19.296875 C 98.417969 19.621094 98.0625 19.972656 97.734375 20.355469 C 97.410156 20.742188 97.121094 21.148438 96.863281 21.582031 C 96.609375 22.019531 96.394531 22.472656 96.21875 22.941406 C 96.042969 23.414062 95.910156 23.898438 95.820312 24.390625 C 95.722656 23.878906 95.675781 23.359375 95.675781 22.835938 C 95.675781 22.265625 95.730469 21.703125 95.84375 21.144531 C 95.953125 20.585938 96.117188 20.042969 96.335938 19.519531 C 96.554688 18.992188 96.820312 18.492188 97.136719 18.019531 C 97.453125 17.546875 97.8125 17.109375 98.214844 16.707031 C 98.617188 16.304688 99.054688 15.945312 99.53125 15.628906 C 100.003906 15.3125 100.503906 15.042969 101.027344 14.824219 C 101.554688 14.609375 102.097656 14.441406 102.65625 14.332031 C 103.214844 14.21875 103.777344 14.164062 104.347656 14.164062 " fill-opacity="1" fill-rule="evenodd"/><path fill="#361d06" d="M 74.984375 54.582031 C 74.761719 54.054688 74.59375 53.515625 74.476562 52.957031 C 74.363281 52.398438 74.300781 51.835938 74.296875 51.265625 C 74.292969 50.695312 74.347656 50.132812 74.453125 49.574219 C 74.5625 49.011719 74.722656 48.46875 74.9375 47.941406 C 75.152344 47.414062 75.414062 46.914062 75.726562 46.4375 C 76.042969 45.960938 76.398438 45.519531 76.796875 45.113281 C 77.199219 44.710938 77.636719 44.347656 78.105469 44.027344 C 78.578125 43.707031 79.078125 43.4375 79.601562 43.214844 C 80.085938 43.007812 80.585938 42.84375 81.097656 42.726562 C 80.675781 43.003906 80.28125 43.3125 79.914062 43.660156 C 79.546875 44.003906 79.210938 44.378906 78.910156 44.78125 C 78.609375 45.183594 78.34375 45.609375 78.113281 46.058594 C 77.886719 46.507812 77.699219 46.972656 77.554688 47.457031 C 77.40625 47.9375 77.304688 48.429688 77.242188 48.929688 C 77.179688 49.429688 77.164062 49.929688 77.191406 50.433594 C 77.214844 50.9375 77.285156 51.433594 77.398438 51.925781 C 77.511719 52.414062 77.667969 52.890625 77.863281 53.355469 C 78.058594 53.820312 78.292969 54.261719 78.566406 54.6875 C 78.839844 55.109375 79.148438 55.507812 79.492188 55.875 C 79.832031 56.246094 80.207031 56.582031 80.605469 56.886719 C 81.007812 57.191406 81.433594 57.460938 81.878906 57.691406 C 82.328125 57.921875 82.792969 58.113281 83.273438 58.261719 C 83.753906 58.414062 84.246094 58.519531 84.746094 58.585938 C 85.246094 58.648438 85.746094 58.671875 86.25 58.648438 C 86.753906 58.625 87.253906 58.5625 87.746094 58.453125 C 87.304688 58.738281 86.847656 58.980469 86.363281 59.1875 C 85.839844 59.40625 85.296875 59.574219 84.738281 59.691406 C 84.179688 59.804688 83.613281 59.867188 83.042969 59.871094 C 82.472656 59.875 81.910156 59.820312 81.347656 59.714844 C 80.789062 59.609375 80.246094 59.445312 79.714844 59.234375 C 79.1875 59.019531 78.683594 58.753906 78.210938 58.441406 C 77.734375 58.128906 77.292969 57.773438 76.886719 57.371094 C 76.480469 56.972656 76.117188 56.535156 75.796875 56.066406 C 75.476562 55.59375 75.203125 55.09375 74.984375 54.570312 " fill-opacity="1" fill-rule="evenodd"/><path fill="#361d06" d="M 104.09375 63.523438 C 103.703125 63.695312 103.296875 63.820312 102.875 63.902344 C 102.457031 63.984375 102.03125 64.019531 101.601562 64.007812 C 101.175781 64 100.753906 63.941406 100.339844 63.835938 C 99.921875 63.734375 99.523438 63.585938 99.140625 63.394531 C 98.757812 63.203125 98.402344 62.972656 98.070312 62.703125 C 97.738281 62.433594 97.4375 62.132812 97.171875 61.796875 C 96.90625 61.460938 96.679688 61.101562 96.496094 60.714844 C 96.308594 60.332031 96.167969 59.929688 96.070312 59.515625 C 96.449219 60.082031 96.917969 60.566406 97.46875 60.96875 C 98.023438 61.371094 98.625 61.667969 99.28125 61.859375 C 99.9375 62.050781 100.609375 62.125 101.292969 62.078125 C 101.972656 62.035156 102.628906 61.875 103.253906 61.601562 C 103.882812 61.328125 104.441406 60.957031 104.9375 60.484375 C 105.433594 60.015625 105.835938 59.472656 106.140625 58.863281 C 106.445312 58.25 106.636719 57.605469 106.714844 56.929688 C 106.792969 56.25 106.753906 55.578125 106.597656 54.914062 C 106.789062 55.203125 106.953125 55.511719 107.085938 55.832031 C 107.242188 56.183594 107.359375 56.546875 107.441406 56.921875 C 107.523438 57.296875 107.566406 57.675781 107.574219 58.058594 C 107.582031 58.441406 107.554688 58.820312 107.484375 59.199219 C 107.417969 59.578125 107.3125 59.945312 107.175781 60.300781 C 107.035156 60.65625 106.859375 60.996094 106.652344 61.320312 C 106.449219 61.644531 106.210938 61.945312 105.945312 62.21875 C 105.679688 62.496094 105.386719 62.742188 105.074219 62.964844 C 104.757812 63.183594 104.425781 63.367188 104.074219 63.523438 " fill-opacity="1" fill-rule="evenodd"/><path fill="#361d06" d="M 136.3125 49.871094 C 135.917969 50.042969 135.511719 50.171875 135.09375 50.253906 C 134.671875 50.335938 134.25 50.371094 133.820312 50.363281 C 133.390625 50.351562 132.96875 50.292969 132.554688 50.191406 C 132.140625 50.085938 131.738281 49.941406 131.355469 49.75 C 130.972656 49.558594 130.617188 49.328125 130.285156 49.058594 C 129.953125 48.789062 129.652344 48.484375 129.386719 48.152344 C 129.121094 47.816406 128.894531 47.457031 128.707031 47.070312 C 128.523438 46.683594 128.378906 46.285156 128.28125 45.867188 C 128.664062 46.4375 129.128906 46.921875 129.683594 47.324219 C 130.234375 47.726562 130.839844 48.027344 131.496094 48.214844 C 132.152344 48.40625 132.824219 48.480469 133.507812 48.4375 C 134.1875 48.394531 134.84375 48.234375 135.472656 47.960938 C 136.097656 47.683594 136.660156 47.3125 137.15625 46.839844 C 137.652344 46.371094 138.050781 45.828125 138.355469 45.214844 C 138.660156 44.605469 138.851562 43.957031 138.929688 43.277344 C 139.007812 42.601562 138.96875 41.929688 138.808594 41.261719 C 139 41.554688 139.164062 41.863281 139.300781 42.1875 C 139.453125 42.539062 139.570312 42.902344 139.652344 43.277344 C 139.734375 43.648438 139.78125 44.027344 139.789062 44.410156 C 139.796875 44.792969 139.765625 45.175781 139.699219 45.550781 C 139.632812 45.929688 139.527344 46.296875 139.386719 46.652344 C 139.25 47.007812 139.074219 47.347656 138.867188 47.671875 C 138.660156 47.996094 138.425781 48.292969 138.160156 48.570312 C 137.894531 48.847656 137.605469 49.09375 137.289062 49.3125 C 136.976562 49.53125 136.640625 49.71875 136.292969 49.871094 " fill-opacity="1" fill-rule="evenodd"/><path fill="#361d06" d="M 141 61.074219 C 141.140625 60.523438 141.332031 59.988281 141.578125 59.476562 C 141.824219 58.960938 142.117188 58.476562 142.457031 58.019531 C 142.796875 57.5625 143.179688 57.144531 143.601562 56.761719 C 144.027344 56.382812 144.484375 56.046875 144.972656 55.753906 C 145.460938 55.460938 145.976562 55.222656 146.511719 55.03125 C 147.050781 54.839844 147.601562 54.703125 148.164062 54.621094 C 148.726562 54.539062 149.296875 54.511719 149.863281 54.542969 C 150.433594 54.570312 150.996094 54.65625 151.546875 54.796875 C 152.054688 54.921875 152.542969 55.097656 153.015625 55.316406 C 152.515625 55.28125 152.011719 55.289062 151.511719 55.34375 C 151.007812 55.394531 150.515625 55.492188 150.03125 55.632812 C 149.546875 55.769531 149.078125 55.949219 148.625 56.171875 C 148.171875 56.390625 147.738281 56.648438 147.332031 56.945312 C 146.921875 57.242188 146.542969 57.570312 146.191406 57.933594 C 145.839844 58.292969 145.523438 58.683594 145.242188 59.101562 C 144.957031 59.519531 144.714844 59.957031 144.507812 60.414062 C 144.300781 60.875 144.136719 61.347656 144.011719 61.839844 C 143.886719 62.328125 143.808594 62.820312 143.769531 63.324219 C 143.730469 63.828125 143.738281 64.328125 143.789062 64.828125 C 143.839844 65.332031 143.933594 65.824219 144.070312 66.308594 C 144.203125 66.792969 144.382812 67.265625 144.601562 67.71875 C 144.816406 68.171875 145.074219 68.605469 145.367188 69.015625 C 145.660156 69.425781 145.988281 69.804688 146.347656 70.160156 C 146.707031 70.511719 147.097656 70.832031 147.511719 71.117188 C 147.925781 71.402344 148.363281 71.648438 148.824219 71.855469 C 148.300781 71.824219 147.785156 71.742188 147.273438 71.613281 C 146.722656 71.472656 146.1875 71.28125 145.675781 71.035156 C 145.160156 70.789062 144.675781 70.496094 144.21875 70.15625 C 143.761719 69.816406 143.339844 69.433594 142.960938 69.011719 C 142.578125 68.589844 142.242188 68.132812 141.949219 67.644531 C 141.65625 67.15625 141.414062 66.640625 141.226562 66.105469 C 141.035156 65.566406 140.898438 65.019531 140.816406 64.453125 C 140.734375 63.890625 140.707031 63.324219 140.734375 62.757812 C 140.765625 62.1875 140.851562 61.628906 140.988281 61.074219 " fill-opacity="1" fill-rule="evenodd"/><path fill="#361d06" d="M 153.261719 119.082031 C 152.773438 118.851562 152.3125 118.574219 151.878906 118.253906 C 151.445312 117.933594 151.046875 117.574219 150.683594 117.171875 C 150.324219 116.773438 150.003906 116.34375 149.722656 115.878906 C 149.445312 115.417969 149.21875 114.933594 149.035156 114.425781 C 148.851562 113.917969 148.722656 113.394531 148.644531 112.863281 C 148.5625 112.328125 148.539062 111.792969 148.5625 111.253906 C 148.589844 110.714844 148.667969 110.183594 148.800781 109.660156 C 148.929688 109.136719 149.113281 108.632812 149.34375 108.144531 C 149.554688 107.695312 149.800781 107.265625 150.09375 106.863281 C 149.96875 107.324219 149.890625 107.789062 149.847656 108.265625 C 149.808594 108.742188 149.808594 109.214844 149.851562 109.691406 C 149.894531 110.167969 149.976562 110.632812 150.101562 111.09375 C 150.222656 111.554688 150.386719 112.003906 150.589844 112.433594 C 150.789062 112.867188 151.027344 113.277344 151.300781 113.671875 C 151.574219 114.0625 151.878906 114.425781 152.214844 114.765625 C 152.554688 115.101562 152.917969 115.410156 153.308594 115.683594 C 153.695312 115.957031 154.109375 116.195312 154.539062 116.402344 C 154.972656 116.605469 155.417969 116.769531 155.878906 116.894531 C 156.339844 117.019531 156.808594 117.105469 157.28125 117.148438 C 157.757812 117.195312 158.234375 117.195312 158.710938 117.160156 C 159.183594 117.121094 159.652344 117.042969 160.117188 116.921875 C 160.578125 116.800781 161.027344 116.644531 161.460938 116.445312 C 161.894531 116.246094 162.308594 116.015625 162.703125 115.746094 C 163.097656 115.476562 163.464844 115.171875 163.804688 114.839844 C 164.148438 114.503906 164.457031 114.144531 164.734375 113.757812 C 164.617188 114.238281 164.453125 114.703125 164.246094 115.152344 C 164.015625 115.640625 163.738281 116.101562 163.417969 116.53125 C 163.09375 116.964844 162.734375 117.363281 162.332031 117.726562 C 161.933594 118.085938 161.5 118.40625 161.039062 118.683594 C 160.574219 118.960938 160.089844 119.191406 159.582031 119.375 C 159.074219 119.554688 158.550781 119.683594 158.019531 119.765625 C 157.484375 119.84375 156.949219 119.871094 156.410156 119.84375 C 155.871094 119.816406 155.339844 119.738281 154.8125 119.609375 C 154.289062 119.480469 153.785156 119.296875 153.296875 119.066406 " fill-opacity="1" fill-rule="evenodd"/><path fill="#361d06" d="M 187.257812 39.054688 C 187.792969 39.128906 188.316406 39.253906 188.828125 39.425781 C 189.335938 39.601562 189.828125 39.828125 190.292969 40.097656 C 190.761719 40.371094 191.195312 40.683594 191.601562 41.042969 C 192.003906 41.398438 192.371094 41.792969 192.699219 42.222656 C 193.023438 42.652344 193.308594 43.109375 193.542969 43.59375 C 193.78125 44.078125 193.96875 44.582031 194.105469 45.105469 C 194.242188 45.625 194.328125 46.15625 194.363281 46.695312 C 194.394531 47.234375 194.375 47.769531 194.300781 48.304688 C 194.234375 48.804688 194.125 49.292969 193.96875 49.773438 C 193.949219 49.296875 193.886719 48.824219 193.78125 48.359375 C 193.679688 47.894531 193.535156 47.4375 193.351562 46.996094 C 193.171875 46.554688 192.949219 46.132812 192.695312 45.730469 C 192.4375 45.328125 192.148438 44.949219 191.824219 44.597656 C 191.503906 44.246094 191.152344 43.921875 190.773438 43.628906 C 190.394531 43.339844 189.996094 43.082031 189.570312 42.859375 C 189.148438 42.636719 188.707031 42.453125 188.253906 42.308594 C 187.796875 42.164062 187.332031 42.058594 186.859375 41.996094 C 186.386719 41.929688 185.910156 41.90625 185.433594 41.925781 C 184.953125 41.945312 184.480469 42.003906 184.015625 42.105469 C 183.546875 42.207031 183.09375 42.347656 182.648438 42.527344 C 182.207031 42.707031 181.78125 42.925781 181.378906 43.179688 C 180.972656 43.433594 180.59375 43.71875 180.238281 44.039062 C 179.882812 44.359375 179.558594 44.707031 179.265625 45.085938 C 178.972656 45.460938 178.710938 45.859375 178.488281 46.28125 C 178.261719 46.703125 178.078125 47.140625 177.929688 47.597656 C 177.90625 47.105469 177.929688 46.617188 177.992188 46.128906 C 178.066406 45.59375 178.191406 45.070312 178.367188 44.558594 C 178.542969 44.050781 178.765625 43.5625 179.039062 43.09375 C 179.3125 42.628906 179.625 42.191406 179.984375 41.789062 C 180.34375 41.382812 180.734375 41.019531 181.167969 40.691406 C 181.597656 40.367188 182.054688 40.082031 182.539062 39.847656 C 183.027344 39.609375 183.53125 39.421875 184.050781 39.285156 C 184.574219 39.148438 185.105469 39.0625 185.644531 39.03125 C 186.183594 38.996094 186.722656 39.015625 187.257812 39.089844 " fill-opacity="1" fill-rule="evenodd"/><path fill="#361d06" d="M 203.675781 70.082031 C 203.386719 70.242188 203.082031 70.371094 202.765625 70.46875 C 202.453125 70.570312 202.128906 70.640625 201.800781 70.675781 C 201.472656 70.714844 201.144531 70.71875 200.8125 70.691406 C 200.484375 70.664062 200.160156 70.605469 199.839844 70.515625 C 199.523438 70.421875 199.214844 70.300781 198.921875 70.152344 C 198.628906 70 198.351562 69.824219 198.089844 69.617188 C 197.832031 69.414062 197.59375 69.183594 197.378906 68.933594 C 197.164062 68.679688 196.976562 68.410156 196.816406 68.121094 C 196.667969 67.855469 196.542969 67.574219 196.441406 67.285156 C 196.820312 67.738281 197.265625 68.117188 197.773438 68.414062 C 198.28125 68.714844 198.828125 68.917969 199.40625 69.023438 C 199.988281 69.132812 200.570312 69.140625 201.152344 69.046875 C 201.734375 68.949219 202.285156 68.757812 202.800781 68.472656 C 203.316406 68.1875 203.769531 67.820312 204.15625 67.375 C 204.546875 66.929688 204.847656 66.433594 205.058594 65.882812 C 205.273438 65.332031 205.386719 64.765625 205.402344 64.175781 C 205.417969 63.585938 205.332031 63.011719 205.144531 62.449219 C 205.339844 62.683594 205.511719 62.9375 205.660156 63.203125 C 205.820312 63.492188 205.949219 63.796875 206.050781 64.109375 C 206.148438 64.425781 206.21875 64.746094 206.253906 65.074219 C 206.292969 65.40625 206.296875 65.734375 206.269531 66.0625 C 206.242188 66.390625 206.183594 66.714844 206.09375 67.035156 C 206 67.351562 205.882812 67.65625 205.730469 67.953125 C 205.578125 68.246094 205.402344 68.523438 205.195312 68.78125 C 204.988281 69.039062 204.761719 69.277344 204.511719 69.492188 C 204.257812 69.707031 203.988281 69.894531 203.699219 70.054688 " fill-opacity="1" fill-rule="evenodd"/><path fill="#361d06" d="M 185.675781 103.089844 C 185.5 103.597656 185.273438 104.085938 185 104.550781 C 184.726562 105.019531 184.414062 105.453125 184.054688 105.855469 C 183.695312 106.261719 183.300781 106.625 182.871094 106.953125 C 182.441406 107.277344 181.984375 107.558594 181.496094 107.796875 C 181.011719 108.03125 180.507812 108.21875 179.984375 108.355469 C 179.460938 108.492188 178.929688 108.578125 178.390625 108.613281 C 177.851562 108.644531 177.316406 108.625 176.78125 108.550781 C 176.246094 108.476562 175.722656 108.355469 175.210938 108.179688 C 174.742188 108.015625 174.292969 107.8125 173.859375 107.570312 C 174.332031 107.644531 174.804688 107.671875 175.28125 107.664062 C 175.761719 107.652344 176.234375 107.597656 176.703125 107.507812 C 177.171875 107.414062 177.625 107.28125 178.070312 107.105469 C 178.515625 106.933594 178.945312 106.726562 179.351562 106.476562 C 179.761719 106.230469 180.144531 105.949219 180.503906 105.636719 C 180.867188 105.324219 181.195312 104.980469 181.496094 104.609375 C 181.796875 104.238281 182.0625 103.84375 182.292969 103.425781 C 182.523438 103.007812 182.71875 102.574219 182.875 102.125 C 183.03125 101.671875 183.144531 101.210938 183.222656 100.742188 C 183.296875 100.269531 183.332031 99.796875 183.324219 99.320312 C 183.316406 98.839844 183.269531 98.367188 183.179688 97.898438 C 183.089844 97.429688 182.960938 96.972656 182.789062 96.527344 C 182.621094 96.082031 182.414062 95.652344 182.171875 95.242188 C 181.925781 94.832031 181.648438 94.445312 181.335938 94.085938 C 181.027344 93.722656 180.6875 93.390625 180.316406 93.085938 C 179.949219 92.785156 179.554688 92.515625 179.140625 92.28125 C 179.628906 92.355469 180.109375 92.476562 180.578125 92.636719 C 181.089844 92.816406 181.578125 93.039062 182.046875 93.3125 C 182.511719 93.582031 182.949219 93.898438 183.351562 94.253906 C 183.757812 94.613281 184.121094 95.007812 184.449219 95.4375 C 184.777344 95.867188 185.058594 96.324219 185.292969 96.808594 C 185.53125 97.292969 185.71875 97.796875 185.855469 98.320312 C 185.992188 98.839844 186.078125 99.371094 186.109375 99.910156 C 186.140625 100.449219 186.121094 100.984375 186.050781 101.519531 C 185.976562 102.054688 185.851562 102.578125 185.675781 103.089844 " fill-opacity="1" fill-rule="evenodd"/><path fill="#ffd78c" d="M 199.996094 126.378906 L 193.023438 110.269531 C 191.792969 112.09375 190.304688 113.671875 188.550781 115.003906 C 188.359375 115.152344 188.164062 115.292969 187.96875 115.429688 L 193.273438 127.839844 C 195.527344 127.382812 197.769531 126.890625 199.996094 126.371094 " fill-opacity="1" fill-rule="nonzero"/><path fill="#e6e6e6" d="M 209.554688 148.472656 L 202.367188 131.867188 C 200.140625 132.394531 197.894531 132.894531 195.636719 133.363281 L 202.695312 149.808594 C 204.980469 149.398438 207.265625 148.949219 209.554688 148.457031 " fill-opacity="1" fill-rule="nonzero"/><path fill="#ffd78c" d="M 246.730469 197.074219 C 231.914062 196.632812 223.730469 181.210938 223.730469 181.210938 L 211.945312 153.984375 C 209.65625 154.488281 207.363281 154.953125 205.0625 155.378906 L 217.417969 184.253906 C 222.582031 196.332031 231.167969 202.609375 244.324219 197.960938 C 245.125 197.675781 245.929688 197.382812 246.730469 197.089844 " fill-opacity="1" fill-rule="nonzero"/><g fill="#361d06" fill-opacity="1"><g transform="translate(10.019832, 264.921452)"><g><path d="M 4.1875 -35.015625 C 7.070312 -36.265625 9.207031 -36.957031 10.59375 -37.09375 C 13.03125 -36.863281 14.675781 -35.742188 15.53125 -33.734375 L 15.53125 -8.859375 L 30.65625 -8.859375 C 31.570312 -6.179688 32.03125 -4.507812 32.03125 -3.84375 C 31.945312 -2.570312 31.003906 -1.164062 29.203125 0.375 L 4.1875 0.375 Z M 4.1875 -35.015625 "/></g></g></g><g fill="#361d06" fill-opacity="1"><g transform="translate(40.450452, 264.921452)"><g><path d="M 1.3125 -14.5 C 1.3125 -18.757812 2.609375 -22.191406 5.203125 -24.796875 C 7.796875 -27.410156 10.925781 -28.71875 14.59375 -28.71875 C 18.21875 -28.71875 21.328125 -27.382812 23.921875 -24.71875 C 26.515625 -22.050781 27.828125 -18.644531 27.859375 -14.5 C 27.859375 -10.414062 26.660156 -6.9375 24.265625 -4.0625 C 21.878906 -1.1875 18.65625 0.25 14.59375 0.25 C 10.601562 0.25 7.390625 -1.171875 4.953125 -4.015625 C 2.523438 -6.867188 1.3125 -10.363281 1.3125 -14.5 Z M 11.078125 -14.5 C 11.078125 -12.488281 11.429688 -10.972656 12.140625 -9.953125 C 12.859375 -8.941406 13.675781 -8.4375 14.59375 -8.4375 C 15.539062 -8.4375 16.359375 -8.96875 17.046875 -10.03125 C 17.742188 -11.09375 18.09375 -12.582031 18.09375 -14.5 C 18.09375 -16.5 17.742188 -17.984375 17.046875 -18.953125 C 16.359375 -19.921875 15.613281 -20.40625 14.8125 -20.40625 C 13.863281 -20.40625 13.003906 -19.925781 12.234375 -18.96875 C 11.460938 -18.019531 11.078125 -16.53125 11.078125 -14.5 Z M 11.078125 -14.5 "/></g></g></g><g fill="#361d06" fill-opacity="1"><g transform="translate(67.940259, 264.921452)"><g><path d="M 26.1875 -23.5625 C 25.800781 -19.78125 24.222656 -17.890625 21.453125 -17.890625 C 19.671875 -17.890625 18.597656 -18.175781 18.234375 -18.75 C 17.703125 -19.332031 17.203125 -19.757812 16.734375 -20.03125 C 16.273438 -20.3125 15.679688 -20.453125 14.953125 -20.453125 C 14.140625 -20.453125 13.300781 -20.003906 12.4375 -19.109375 C 11.570312 -18.222656 11.140625 -16.753906 11.140625 -14.703125 C 11.140625 -12.046875 11.65625 -10.335938 12.6875 -9.578125 C 13.726562 -8.816406 14.5625 -8.4375 15.1875 -8.4375 C 16.15625 -8.4375 17.179688 -8.757812 18.265625 -9.40625 C 19.046875 -10.488281 20.304688 -11.03125 22.046875 -11.03125 C 24.628906 -11.03125 26.320312 -9.0625 27.125 -5.125 C 22.90625 -1.519531 18.914062 0.28125 15.15625 0.28125 C 10.40625 0.257812 6.914062 -1.394531 4.6875 -4.6875 C 2.457031 -7.976562 1.34375 -11.316406 1.34375 -14.703125 C 1.34375 -18.804688 2.722656 -22.253906 5.484375 -25.046875 C 8.242188 -27.835938 11.515625 -29.234375 15.296875 -29.234375 C 18.359375 -29.234375 20.632812 -28.726562 22.125 -27.71875 C 23.613281 -26.71875 24.96875 -25.332031 26.1875 -23.5625 Z M 26.1875 -23.5625 "/></g></g></g><g fill="#361d06" fill-opacity="1"><g transform="translate(94.080767, 264.921452)"><g><path d="M 26.984375 -29.125 L 26.984375 -2.140625 C 24.796875 -0.753906 23.207031 -0.0195312 22.21875 0.0625 C 20.226562 0.0625 18.910156 -0.695312 18.265625 -2.21875 L 17.296875 -1.03125 C 16.609375 -0.226562 14.867188 0.171875 12.078125 0.171875 C 7.972656 0.171875 5.148438 -1.503906 3.609375 -4.859375 C 2.078125 -8.210938 1.3125 -11.492188 1.3125 -14.703125 C 1.332031 -18.140625 2.398438 -21.367188 4.515625 -24.390625 C 6.628906 -27.410156 9.390625 -29.015625 12.796875 -29.203125 Z M 10.828125 -14.703125 C 10.828125 -12.722656 11.128906 -11.109375 11.734375 -9.859375 C 12.347656 -8.617188 13.003906 -8 13.703125 -8 C 14.617188 -8.019531 15.515625 -8.40625 16.390625 -9.15625 C 17.273438 -9.90625 17.71875 -11.210938 17.71875 -13.078125 L 17.71875 -20.890625 L 14.59375 -20.890625 C 14.039062 -20.867188 13.273438 -20.296875 12.296875 -19.171875 C 11.316406 -18.054688 10.828125 -16.566406 10.828125 -14.703125 Z M 10.828125 -14.703125 "/></g></g></g><g fill="#361d06" fill-opacity="1"><g transform="translate(122.089543, 264.921452)"><g><path d="M 5.15625 -21.109375 L 2.453125 -21.109375 C 1.273438 -23.046875 0.6875 -24.519531 0.6875 -25.53125 C 0.738281 -26.800781 1.6875 -27.722656 3.53125 -28.296875 L 5.15625 -28.296875 L 5.15625 -32.5625 C 7.457031 -33.039062 9.035156 -33.289062 9.890625 -33.3125 C 11.253906 -33.3125 12.476562 -32.710938 13.5625 -31.515625 L 13.5625 -28.296875 L 17.125 -28.296875 C 17.9375 -26.410156 18.34375 -25.109375 18.34375 -24.390625 C 18.34375 -23.117188 17.59375 -22.023438 16.09375 -21.109375 L 13.5625 -21.109375 L 13.5625 -8.609375 C 13.5625 -8.054688 14.726562 -7.664062 17.0625 -7.4375 L 17.75 -6.40625 C 18.226562 -5.113281 18.46875 -3.957031 18.46875 -2.9375 C 18.425781 -1.832031 17.617188 -0.910156 16.046875 -0.171875 L 13.59375 -0.171875 C 10.269531 -0.171875 8.03125 -1.15625 6.875 -3.125 C 5.726562 -5.101562 5.15625 -6.945312 5.15625 -8.65625 Z M 5.15625 -21.109375 "/></g></g></g><g fill="#361d06" fill-opacity="1"><g transform="translate(139.546007, 264.921452)"><g><path d="M 11.109375 -18.828125 L 17.40625 -19.265625 C 17.382812 -20.171875 17.175781 -21.035156 16.78125 -21.859375 C 16.382812 -22.691406 15.691406 -23.109375 14.703125 -23.109375 C 13.597656 -23.109375 12.722656 -22.679688 12.078125 -21.828125 C 11.429688 -20.972656 11.109375 -19.972656 11.109375 -18.828125 Z M 11.03125 -13.5 C 11.289062 -11.300781 11.8125 -9.832031 12.59375 -9.09375 C 13.375 -8.363281 14.078125 -8 14.703125 -8 C 15.648438 -8 16.429688 -8.070312 17.046875 -8.21875 C 17.671875 -8.363281 18.019531 -9.242188 18.09375 -10.859375 C 24.28125 -10.859375 27.375 -9.726562 27.375 -7.46875 C 27.375 -6.4375 26.878906 -5.304688 25.890625 -4.078125 C 24.910156 -2.859375 23.613281 -1.84375 22 -1.03125 C 20.382812 -0.226562 17.953125 0.171875 14.703125 0.171875 C 10.203125 0.171875 6.84375 -1.144531 4.625 -3.78125 C 2.414062 -6.425781 1.3125 -10.066406 1.3125 -14.703125 C 1.3125 -19.503906 2.535156 -23.128906 4.984375 -25.578125 C 7.429688 -28.035156 10.671875 -29.265625 14.703125 -29.265625 C 20.535156 -29.265625 24.082031 -27.6875 25.34375 -24.53125 C 26.601562 -21.375 27.242188 -18.953125 27.265625 -17.265625 C 27.191406 -15.859375 25.890625 -15.085938 23.359375 -14.953125 Z M 11.03125 -13.5 "/></g></g></g><g fill="#361d06" fill-opacity="1"><g transform="translate(166.482246, 264.921452)"><g/></g></g><g fill="#361d06" fill-opacity="1"><g transform="translate(181.447675, 264.921452)"><g><path d="M 26.1875 -23.5625 C 25.800781 -19.78125 24.222656 -17.890625 21.453125 -17.890625 C 19.671875 -17.890625 18.597656 -18.175781 18.234375 -18.75 C 17.703125 -19.332031 17.203125 -19.757812 16.734375 -20.03125 C 16.273438 -20.3125 15.679688 -20.453125 14.953125 -20.453125 C 14.140625 -20.453125 13.300781 -20.003906 12.4375 -19.109375 C 11.570312 -18.222656 11.140625 -16.753906 11.140625 -14.703125 C 11.140625 -12.046875 11.65625 -10.335938 12.6875 -9.578125 C 13.726562 -8.816406 14.5625 -8.4375 15.1875 -8.4375 C 16.15625 -8.4375 17.179688 -8.757812 18.265625 -9.40625 C 19.046875 -10.488281 20.304688 -11.03125 22.046875 -11.03125 C 24.628906 -11.03125 26.320312 -9.0625 27.125 -5.125 C 22.90625 -1.519531 18.914062 0.28125 15.15625 0.28125 C 10.40625 0.257812 6.914062 -1.394531 4.6875 -4.6875 C 2.457031 -7.976562 1.34375 -11.316406 1.34375 -14.703125 C 1.34375 -18.804688 2.722656 -22.253906 5.484375 -25.046875 C 8.242188 -27.835938 11.515625 -29.234375 15.296875 -29.234375 C 18.359375 -29.234375 20.632812 -28.726562 22.125 -27.71875 C 23.613281 -26.71875 24.96875 -25.332031 26.1875 -23.5625 Z M 26.1875 -23.5625 "/></g></g></g><g fill="#361d06" fill-opacity="1"><g transform="translate(207.588174, 264.921452)"><g><path d="M 11.109375 -18.828125 L 17.40625 -19.265625 C 17.382812 -20.171875 17.175781 -21.035156 16.78125 -21.859375 C 16.382812 -22.691406 15.691406 -23.109375 14.703125 -23.109375 C 13.597656 -23.109375 12.722656 -22.679688 12.078125 -21.828125 C 11.429688 -20.972656 11.109375 -19.972656 11.109375 -18.828125 Z M 11.03125 -13.5 C 11.289062 -11.300781 11.8125 -9.832031 12.59375 -9.09375 C 13.375 -8.363281 14.078125 -8 14.703125 -8 C 15.648438 -8 16.429688 -8.070312 17.046875 -8.21875 C 17.671875 -8.363281 18.019531 -9.242188 18.09375 -10.859375 C 24.28125 -10.859375 27.375 -9.726562 27.375 -7.46875 C 27.375 -6.4375 26.878906 -5.304688 25.890625 -4.078125 C 24.910156 -2.859375 23.613281 -1.84375 22 -1.03125 C 20.382812 -0.226562 17.953125 0.171875 14.703125 0.171875 C 10.203125 0.171875 6.84375 -1.144531 4.625 -3.78125 C 2.414062 -6.425781 1.3125 -10.066406 1.3125 -14.703125 C 1.3125 -19.503906 2.535156 -23.128906 4.984375 -25.578125 C 7.429688 -28.035156 10.671875 -29.265625 14.703125 -29.265625 C 20.535156 -29.265625 24.082031 -27.6875 25.34375 -24.53125 C 26.601562 -21.375 27.242188 -18.953125 27.265625 -17.265625 C 27.191406 -15.859375 25.890625 -15.085938 23.359375 -14.953125 Z M 11.03125 -13.5 "/></g></g></g><g fill="#361d06" fill-opacity="1"><g transform="translate(234.524413, 264.921452)"><g><path d="M 19.046875 -20.8125 C 18.617188 -21.601562 17.875 -22 16.8125 -22 C 16.007812 -22 15.4375 -21.457031 15.09375 -20.375 C 14.757812 -19.289062 14.59375 -18.054688 14.59375 -16.671875 L 14.59375 -1.796875 C 11.78125 -0.203125 9.707031 0.59375 8.375 0.59375 C 6 0.59375 4.359375 -0.535156 3.453125 -2.796875 L 3.453125 -27.09375 C 5.535156 -28.5 7.164062 -29.203125 8.34375 -29.203125 C 9.46875 -29.203125 10.410156 -29.078125 11.171875 -28.828125 L 11.171875 -25.984375 C 12.691406 -28.078125 14.65625 -29.125 17.0625 -29.125 C 19.738281 -29.125 22.367188 -28.03125 24.953125 -25.84375 C 24.441406 -21.695312 23.066406 -19.625 20.828125 -19.625 C 20.066406 -19.625 19.472656 -20.019531 19.046875 -20.8125 Z M 19.046875 -20.8125 "/></g></g></g><g fill="#361d06" fill-opacity="1"><g transform="translate(257.897095, 264.921452)"><g><path d="M 9.65625 -2.28125 L 1.078125 -26.984375 C 4.191406 -28.503906 6.453125 -29.265625 7.859375 -29.265625 C 9.816406 -29.265625 11.253906 -28.273438 12.171875 -26.296875 L 15.75 -16.953125 L 19.375 -27.296875 C 21.820312 -28.585938 23.679688 -29.234375 24.953125 -29.234375 C 27.460938 -29.234375 29.085938 -28.066406 29.828125 -25.734375 L 21.28125 -1 C 17.675781 -0.238281 15.390625 0.140625 14.421875 0.140625 C 12.484375 0.140625 10.894531 -0.664062 9.65625 -2.28125 Z M 9.65625 -2.28125 "/></g></g></g><g fill="#361d06" fill-opacity="1"><g transform="translate(287.2206, 264.921452)"><g><path d="M 11.109375 -18.828125 L 17.40625 -19.265625 C 17.382812 -20.171875 17.175781 -21.035156 16.78125 -21.859375 C 16.382812 -22.691406 15.691406 -23.109375 14.703125 -23.109375 C 13.597656 -23.109375 12.722656 -22.679688 12.078125 -21.828125 C 11.429688 -20.972656 11.109375 -19.972656 11.109375 -18.828125 Z M 11.03125 -13.5 C 11.289062 -11.300781 11.8125 -9.832031 12.59375 -9.09375 C 13.375 -8.363281 14.078125 -8 14.703125 -8 C 15.648438 -8 16.429688 -8.070312 17.046875 -8.21875 C 17.671875 -8.363281 18.019531 -9.242188 18.09375 -10.859375 C 24.28125 -10.859375 27.375 -9.726562 27.375 -7.46875 C 27.375 -6.4375 26.878906 -5.304688 25.890625 -4.078125 C 24.910156 -2.859375 23.613281 -1.84375 22 -1.03125 C 20.382812 -0.226562 17.953125 0.171875 14.703125 0.171875 C 10.203125 0.171875 6.84375 -1.144531 4.625 -3.78125 C 2.414062 -6.425781 1.3125 -10.066406 1.3125 -14.703125 C 1.3125 -19.503906 2.535156 -23.128906 4.984375 -25.578125 C 7.429688 -28.035156 10.671875 -29.265625 14.703125 -29.265625 C 20.535156 -29.265625 24.082031 -27.6875 25.34375 -24.53125 C 26.601562 -21.375 27.242188 -18.953125 27.265625 -17.265625 C 27.191406 -15.859375 25.890625 -15.085938 23.359375 -14.953125 Z M 11.03125 -13.5 "/></g></g></g><g fill="#361d06" fill-opacity="1"><g transform="translate(314.156855, 264.921452)"><g><path d="M -1.703125 3.90625 C -1.703125 2.550781 -0.382812 1.210938 2.25 -0.109375 L 5.78125 -0.796875 C 6.375 -1.003906 6.679688 -1.222656 6.703125 -1.453125 C 6.734375 -1.679688 6.75 -2.25 6.75 -3.15625 L 6.75 -24.765625 C 8.9375 -26.640625 10.921875 -27.578125 12.703125 -27.578125 C 15.003906 -27.578125 16.742188 -26.503906 17.921875 -24.359375 L 17.921875 -3.15625 C 17.898438 -0.3125 17.648438 1.898438 17.171875 3.484375 C 16.703125 5.078125 14.425781 6.421875 10.34375 7.515625 L 2.453125 8.484375 C -0.316406 6.679688 -1.703125 5.15625 -1.703125 3.90625 Z M 6.1875 -34.421875 C 6.1875 -35.710938 6.8125 -36.75 8.0625 -37.53125 C 9.3125 -38.320312 10.695312 -38.71875 12.21875 -38.71875 C 13.945312 -38.71875 15.28125 -38.390625 16.21875 -37.734375 C 17.164062 -37.078125 17.640625 -36.085938 17.640625 -34.765625 C 17.640625 -33.679688 17.148438 -32.628906 16.171875 -31.609375 C 15.191406 -30.597656 13.675781 -30.09375 11.625 -30.09375 C 9.644531 -30.09375 8.242188 -30.519531 7.421875 -31.375 C 6.597656 -32.226562 6.1875 -33.242188 6.1875 -34.421875 Z M 6.1875 -34.421875 "/></g></g></g><g fill="#361d06" fill-opacity="1"><g transform="translate(334.83093, 264.921452)"><g><path d="M 26.984375 -29.125 L 26.984375 -2.140625 C 24.796875 -0.753906 23.207031 -0.0195312 22.21875 0.0625 C 20.226562 0.0625 18.910156 -0.695312 18.265625 -2.21875 L 17.296875 -1.03125 C 16.609375 -0.226562 14.867188 0.171875 12.078125 0.171875 C 7.972656 0.171875 5.148438 -1.503906 3.609375 -4.859375 C 2.078125 -8.210938 1.3125 -11.492188 1.3125 -14.703125 C 1.332031 -18.140625 2.398438 -21.367188 4.515625 -24.390625 C 6.628906 -27.410156 9.390625 -29.015625 12.796875 -29.203125 Z M 10.828125 -14.703125 C 10.828125 -12.722656 11.128906 -11.109375 11.734375 -9.859375 C 12.347656 -8.617188 13.003906 -8 13.703125 -8 C 14.617188 -8.019531 15.515625 -8.40625 16.390625 -9.15625 C 17.273438 -9.90625 17.71875 -11.210938 17.71875 -13.078125 L 17.71875 -20.890625 L 14.59375 -20.890625 C 14.039062 -20.867188 13.273438 -20.296875 12.296875 -19.171875 C 11.316406 -18.054688 10.828125 -16.566406 10.828125 -14.703125 Z M 10.828125 -14.703125 "/></g></g></g><g fill="#3d1900" fill-opacity="1"><g transform="translate(99.427622, 293.95044)"><g><path d="M 1.375 0 C 1.28125 0 1.195312 -0.03125 1.125 -0.09375 C 1.0625 -0.164062 1.03125 -0.25 1.03125 -0.34375 L 1.03125 -9.453125 C 1.03125 -9.554688 1.0625 -9.640625 1.125 -9.703125 C 1.195312 -9.765625 1.28125 -9.796875 1.375 -9.796875 L 7.734375 -9.796875 C 7.828125 -9.796875 7.90625 -9.765625 7.96875 -9.703125 C 8.039062 -9.640625 8.078125 -9.554688 8.078125 -9.453125 L 8.078125 -8.328125 C 8.078125 -8.222656 8.039062 -8.140625 7.96875 -8.078125 C 7.90625 -8.015625 7.828125 -7.984375 7.734375 -7.984375 L 3.1875 -7.984375 L 3.1875 -5.796875 L 7.421875 -5.796875 C 7.523438 -5.796875 7.609375 -5.757812 7.671875 -5.6875 C 7.734375 -5.625 7.765625 -5.546875 7.765625 -5.453125 L 7.765625 -4.40625 C 7.765625 -4.3125 7.734375 -4.226562 7.671875 -4.15625 C 7.609375 -4.09375 7.523438 -4.0625 7.421875 -4.0625 L 3.1875 -4.0625 L 3.1875 -1.8125 L 7.84375 -1.8125 C 7.945312 -1.8125 8.03125 -1.78125 8.09375 -1.71875 C 8.15625 -1.65625 8.1875 -1.570312 8.1875 -1.46875 L 8.1875 -0.34375 C 8.1875 -0.25 8.15625 -0.164062 8.09375 -0.09375 C 8.03125 -0.03125 7.945312 0 7.84375 0 Z M 1.375 0 "/></g></g></g><g fill="#3d1900" fill-opacity="1"><g transform="translate(112.4567, 293.95044)"><g><path d="M 1.375 0 C 1.28125 0 1.195312 -0.03125 1.125 -0.09375 C 1.0625 -0.164062 1.03125 -0.25 1.03125 -0.34375 L 1.03125 -9.453125 C 1.03125 -9.554688 1.0625 -9.640625 1.125 -9.703125 C 1.195312 -9.765625 1.28125 -9.796875 1.375 -9.796875 L 2.65625 -9.796875 C 2.800781 -9.796875 2.90625 -9.765625 2.96875 -9.703125 C 3.03125 -9.640625 3.070312 -9.585938 3.09375 -9.546875 L 6.8125 -3.71875 L 6.8125 -9.453125 C 6.8125 -9.554688 6.84375 -9.640625 6.90625 -9.703125 C 6.976562 -9.765625 7.066406 -9.796875 7.171875 -9.796875 L 8.59375 -9.796875 C 8.695312 -9.796875 8.78125 -9.765625 8.84375 -9.703125 C 8.914062 -9.640625 8.953125 -9.554688 8.953125 -9.453125 L 8.953125 -0.34375 C 8.953125 -0.25 8.914062 -0.164062 8.84375 -0.09375 C 8.78125 -0.03125 8.695312 0 8.59375 0 L 7.3125 0 C 7.164062 0 7.0625 -0.03125 7 -0.09375 C 6.9375 -0.164062 6.894531 -0.21875 6.875 -0.25 L 3.15625 -5.890625 L 3.15625 -0.34375 C 3.15625 -0.25 3.125 -0.164062 3.0625 -0.09375 C 3 -0.03125 2.914062 0 2.8125 0 Z M 1.375 0 "/></g></g></g><g fill="#3d1900" fill-opacity="1"><g transform="translate(126.633139, 293.95044)"><g><path d="M 3.546875 0 C 3.441406 0 3.351562 -0.03125 3.28125 -0.09375 C 3.21875 -0.164062 3.1875 -0.25 3.1875 -0.34375 L 3.1875 -7.84375 L 0.640625 -7.84375 C 0.546875 -7.84375 0.46875 -7.875 0.40625 -7.9375 C 0.34375 -8 0.3125 -8.082031 0.3125 -8.1875 L 0.3125 -9.453125 C 0.3125 -9.554688 0.34375 -9.640625 0.40625 -9.703125 C 0.46875 -9.765625 0.546875 -9.796875 0.640625 -9.796875 L 7.984375 -9.796875 C 8.085938 -9.796875 8.171875 -9.765625 8.234375 -9.703125 C 8.296875 -9.640625 8.328125 -9.554688 8.328125 -9.453125 L 8.328125 -8.1875 C 8.328125 -8.082031 8.296875 -8 8.234375 -7.9375 C 8.171875 -7.875 8.085938 -7.84375 7.984375 -7.84375 L 5.453125 -7.84375 L 5.453125 -0.34375 C 5.453125 -0.25 5.414062 -0.164062 5.34375 -0.09375 C 5.28125 -0.03125 5.195312 0 5.09375 0 Z M 3.546875 0 "/></g></g></g><g fill="#3d1900" fill-opacity="1"><g transform="translate(139.466328, 293.95044)"><g><path d="M 1.375 0 C 1.28125 0 1.195312 -0.03125 1.125 -0.09375 C 1.0625 -0.164062 1.03125 -0.25 1.03125 -0.34375 L 1.03125 -9.453125 C 1.03125 -9.554688 1.0625 -9.640625 1.125 -9.703125 C 1.195312 -9.765625 1.28125 -9.796875 1.375 -9.796875 L 5.09375 -9.796875 C 6.257812 -9.796875 7.175781 -9.523438 7.84375 -8.984375 C 8.519531 -8.453125 8.859375 -7.679688 8.859375 -6.671875 C 8.859375 -5.992188 8.691406 -5.425781 8.359375 -4.96875 C 8.035156 -4.507812 7.601562 -4.171875 7.0625 -3.953125 L 9.046875 -0.453125 C 9.078125 -0.390625 9.09375 -0.335938 9.09375 -0.296875 C 9.09375 -0.222656 9.0625 -0.15625 9 -0.09375 C 8.9375 -0.03125 8.867188 0 8.796875 0 L 7.21875 0 C 7.050781 0 6.925781 -0.0390625 6.84375 -0.125 C 6.757812 -0.21875 6.695312 -0.300781 6.65625 -0.375 L 4.953125 -3.578125 L 3.265625 -3.578125 L 3.265625 -0.34375 C 3.265625 -0.25 3.226562 -0.164062 3.15625 -0.09375 C 3.09375 -0.03125 3.007812 0 2.90625 0 Z M 3.265625 -5.359375 L 5.0625 -5.359375 C 5.570312 -5.359375 5.945312 -5.472656 6.1875 -5.703125 C 6.4375 -5.941406 6.5625 -6.269531 6.5625 -6.6875 C 6.5625 -7.113281 6.441406 -7.445312 6.203125 -7.6875 C 5.960938 -7.925781 5.582031 -8.046875 5.0625 -8.046875 L 3.265625 -8.046875 Z M 3.265625 -5.359375 "/></g></g></g><g fill="#3d1900" fill-opacity="1"><g transform="translate(153.209014, 293.95044)"><g><path d="M 1.375 0 C 1.28125 0 1.195312 -0.03125 1.125 -0.09375 C 1.0625 -0.164062 1.03125 -0.25 1.03125 -0.34375 L 1.03125 -9.453125 C 1.03125 -9.554688 1.0625 -9.640625 1.125 -9.703125 C 1.195312 -9.765625 1.28125 -9.796875 1.375 -9.796875 L 7.734375 -9.796875 C 7.828125 -9.796875 7.90625 -9.765625 7.96875 -9.703125 C 8.039062 -9.640625 8.078125 -9.554688 8.078125 -9.453125 L 8.078125 -8.328125 C 8.078125 -8.222656 8.039062 -8.140625 7.96875 -8.078125 C 7.90625 -8.015625 7.828125 -7.984375 7.734375 -7.984375 L 3.1875 -7.984375 L 3.1875 -5.796875 L 7.421875 -5.796875 C 7.523438 -5.796875 7.609375 -5.757812 7.671875 -5.6875 C 7.734375 -5.625 7.765625 -5.546875 7.765625 -5.453125 L 7.765625 -4.40625 C 7.765625 -4.3125 7.734375 -4.226562 7.671875 -4.15625 C 7.609375 -4.09375 7.523438 -4.0625 7.421875 -4.0625 L 3.1875 -4.0625 L 3.1875 -1.8125 L 7.84375 -1.8125 C 7.945312 -1.8125 8.03125 -1.78125 8.09375 -1.71875 C 8.15625 -1.65625 8.1875 -1.570312 8.1875 -1.46875 L 8.1875 -0.34375 C 8.1875 -0.25 8.15625 -0.164062 8.09375 -0.09375 C 8.03125 -0.03125 7.945312 0 7.84375 0 Z M 1.375 0 "/></g></g></g><g fill="#3d1900" fill-opacity="1"><g transform="translate(166.238089, 293.95044)"><g><path d="M 4.96875 0.140625 C 4.09375 0.140625 3.34375 -0.00390625 2.71875 -0.296875 C 2.101562 -0.585938 1.625 -1.015625 1.28125 -1.578125 C 0.9375 -2.148438 0.753906 -2.835938 0.734375 -3.640625 C 0.722656 -4.035156 0.71875 -4.460938 0.71875 -4.921875 C 0.71875 -5.378906 0.722656 -5.816406 0.734375 -6.234375 C 0.753906 -7.015625 0.9375 -7.679688 1.28125 -8.234375 C 1.625 -8.785156 2.109375 -9.207031 2.734375 -9.5 C 3.367188 -9.789062 4.113281 -9.9375 4.96875 -9.9375 C 5.65625 -9.9375 6.257812 -9.847656 6.78125 -9.671875 C 7.3125 -9.492188 7.753906 -9.257812 8.109375 -8.96875 C 8.472656 -8.6875 8.742188 -8.378906 8.921875 -8.046875 C 9.109375 -7.710938 9.207031 -7.382812 9.21875 -7.0625 C 9.21875 -6.976562 9.1875 -6.910156 9.125 -6.859375 C 9.070312 -6.804688 9 -6.78125 8.90625 -6.78125 L 7.171875 -6.78125 C 7.078125 -6.78125 7.003906 -6.796875 6.953125 -6.828125 C 6.898438 -6.867188 6.851562 -6.925781 6.8125 -7 C 6.75 -7.15625 6.644531 -7.320312 6.5 -7.5 C 6.351562 -7.675781 6.160156 -7.820312 5.921875 -7.9375 C 5.679688 -8.0625 5.363281 -8.125 4.96875 -8.125 C 4.382812 -8.125 3.921875 -7.96875 3.578125 -7.65625 C 3.234375 -7.351562 3.050781 -6.851562 3.03125 -6.15625 C 3 -5.351562 3 -4.535156 3.03125 -3.703125 C 3.050781 -2.984375 3.238281 -2.46875 3.59375 -2.15625 C 3.945312 -1.84375 4.414062 -1.6875 5 -1.6875 C 5.382812 -1.6875 5.726562 -1.753906 6.03125 -1.890625 C 6.332031 -2.023438 6.570312 -2.234375 6.75 -2.515625 C 6.925781 -2.796875 7.015625 -3.160156 7.015625 -3.609375 L 7.015625 -3.96875 L 5.484375 -3.96875 C 5.390625 -3.96875 5.3125 -4 5.25 -4.0625 C 5.1875 -4.132812 5.15625 -4.21875 5.15625 -4.3125 L 5.15625 -5.203125 C 5.15625 -5.304688 5.1875 -5.390625 5.25 -5.453125 C 5.3125 -5.523438 5.390625 -5.5625 5.484375 -5.5625 L 8.9375 -5.5625 C 9.039062 -5.5625 9.125 -5.523438 9.1875 -5.453125 C 9.25 -5.390625 9.28125 -5.304688 9.28125 -5.203125 L 9.28125 -3.6875 C 9.28125 -2.882812 9.101562 -2.195312 8.75 -1.625 C 8.394531 -1.050781 7.890625 -0.613281 7.234375 -0.3125 C 6.585938 -0.0078125 5.832031 0.140625 4.96875 0.140625 Z M 4.96875 0.140625 "/></g></g></g><g fill="#3d1900" fill-opacity="1"><g transform="translate(180.372548, 293.95044)"><g><path d="M 0.46875 0 C 0.382812 0 0.3125 -0.03125 0.25 -0.09375 C 0.195312 -0.15625 0.171875 -0.222656 0.171875 -0.296875 C 0.171875 -0.335938 0.175781 -0.378906 0.1875 -0.421875 L 3.515625 -9.421875 C 3.546875 -9.523438 3.601562 -9.613281 3.6875 -9.6875 C 3.769531 -9.757812 3.882812 -9.796875 4.03125 -9.796875 L 5.828125 -9.796875 C 5.972656 -9.796875 6.085938 -9.757812 6.171875 -9.6875 C 6.253906 -9.613281 6.316406 -9.523438 6.359375 -9.421875 L 9.671875 -0.421875 C 9.691406 -0.378906 9.703125 -0.335938 9.703125 -0.296875 C 9.703125 -0.222656 9.671875 -0.15625 9.609375 -0.09375 C 9.546875 -0.03125 9.472656 0 9.390625 0 L 7.921875 0 C 7.796875 0 7.695312 -0.03125 7.625 -0.09375 C 7.5625 -0.164062 7.519531 -0.226562 7.5 -0.28125 L 6.90625 -1.84375 L 2.953125 -1.84375 L 2.359375 -0.28125 C 2.335938 -0.226562 2.296875 -0.164062 2.234375 -0.09375 C 2.171875 -0.03125 2.070312 0 1.9375 0 Z M 3.484375 -3.65625 L 6.375 -3.65625 L 4.921875 -7.671875 Z M 3.484375 -3.65625 "/></g></g></g><g fill="#3d1900" fill-opacity="1"><g transform="translate(194.423054, 293.95044)"><g/></g></g><g fill="#3d1900" fill-opacity="1"><g transform="translate(201.715332, 293.95044)"><g><path d="M 1.375 0 C 1.28125 0 1.195312 -0.03125 1.125 -0.09375 C 1.0625 -0.164062 1.03125 -0.25 1.03125 -0.34375 L 1.03125 -9.453125 C 1.03125 -9.554688 1.0625 -9.640625 1.125 -9.703125 C 1.195312 -9.765625 1.28125 -9.796875 1.375 -9.796875 L 5.09375 -9.796875 C 6.257812 -9.796875 7.175781 -9.523438 7.84375 -8.984375 C 8.519531 -8.453125 8.859375 -7.679688 8.859375 -6.671875 C 8.859375 -5.992188 8.691406 -5.425781 8.359375 -4.96875 C 8.035156 -4.507812 7.601562 -4.171875 7.0625 -3.953125 L 9.046875 -0.453125 C 9.078125 -0.390625 9.09375 -0.335938 9.09375 -0.296875 C 9.09375 -0.222656 9.0625 -0.15625 9 -0.09375 C 8.9375 -0.03125 8.867188 0 8.796875 0 L 7.21875 0 C 7.050781 0 6.925781 -0.0390625 6.84375 -0.125 C 6.757812 -0.21875 6.695312 -0.300781 6.65625 -0.375 L 4.953125 -3.578125 L 3.265625 -3.578125 L 3.265625 -0.34375 C 3.265625 -0.25 3.226562 -0.164062 3.15625 -0.09375 C 3.09375 -0.03125 3.007812 0 2.90625 0 Z M 3.265625 -5.359375 L 5.0625 -5.359375 C 5.570312 -5.359375 5.945312 -5.472656 6.1875 -5.703125 C 6.4375 -5.941406 6.5625 -6.269531 6.5625 -6.6875 C 6.5625 -7.113281 6.441406 -7.445312 6.203125 -7.6875 C 5.960938 -7.925781 5.582031 -8.046875 5.0625 -8.046875 L 3.265625 -8.046875 Z M 3.265625 -5.359375 "/></g></g></g><g fill="#3d1900" fill-opacity="1"><g transform="translate(215.458014, 293.95044)"><g><path d="M 0.46875 0 C 0.382812 0 0.3125 -0.03125 0.25 -0.09375 C 0.195312 -0.15625 0.171875 -0.222656 0.171875 -0.296875 C 0.171875 -0.335938 0.175781 -0.378906 0.1875 -0.421875 L 3.515625 -9.421875 C 3.546875 -9.523438 3.601562 -9.613281 3.6875 -9.6875 C 3.769531 -9.757812 3.882812 -9.796875 4.03125 -9.796875 L 5.828125 -9.796875 C 5.972656 -9.796875 6.085938 -9.757812 6.171875 -9.6875 C 6.253906 -9.613281 6.316406 -9.523438 6.359375 -9.421875 L 9.671875 -0.421875 C 9.691406 -0.378906 9.703125 -0.335938 9.703125 -0.296875 C 9.703125 -0.222656 9.671875 -0.15625 9.609375 -0.09375 C 9.546875 -0.03125 9.472656 0 9.390625 0 L 7.921875 0 C 7.796875 0 7.695312 -0.03125 7.625 -0.09375 C 7.5625 -0.164062 7.519531 -0.226562 7.5 -0.28125 L 6.90625 -1.84375 L 2.953125 -1.84375 L 2.359375 -0.28125 C 2.335938 -0.226562 2.296875 -0.164062 2.234375 -0.09375 C 2.171875 -0.03125 2.070312 0 1.9375 0 Z M 3.484375 -3.65625 L 6.375 -3.65625 L 4.921875 -7.671875 Z M 4.484375 -10.5 C 4.335938 -10.5 4.265625 -10.570312 4.265625 -10.71875 C 4.265625 -10.800781 4.285156 -10.863281 4.328125 -10.90625 L 5.515625 -12.34375 C 5.597656 -12.457031 5.675781 -12.53125 5.75 -12.5625 C 5.820312 -12.59375 5.914062 -12.609375 6.03125 -12.609375 L 7.765625 -12.609375 C 7.941406 -12.609375 8.03125 -12.515625 8.03125 -12.328125 C 8.03125 -12.265625 8.003906 -12.210938 7.953125 -12.171875 L 6.15625 -10.703125 C 6.070312 -10.628906 5.992188 -10.578125 5.921875 -10.546875 C 5.859375 -10.515625 5.765625 -10.5 5.640625 -10.5 Z M 4.484375 -10.5 "/></g></g></g><g fill="#3d1900" fill-opacity="1"><g transform="translate(229.50852, 293.95044)"><g><path d="M 1.375 0 C 1.28125 0 1.195312 -0.03125 1.125 -0.09375 C 1.0625 -0.164062 1.03125 -0.25 1.03125 -0.34375 L 1.03125 -9.453125 C 1.03125 -9.554688 1.0625 -9.640625 1.125 -9.703125 C 1.195312 -9.765625 1.28125 -9.796875 1.375 -9.796875 L 5.203125 -9.796875 C 5.960938 -9.796875 6.617188 -9.675781 7.171875 -9.4375 C 7.734375 -9.207031 8.171875 -8.859375 8.484375 -8.390625 C 8.796875 -7.921875 8.953125 -7.332031 8.953125 -6.625 C 8.953125 -5.925781 8.796875 -5.34375 8.484375 -4.875 C 8.171875 -4.414062 7.734375 -4.070312 7.171875 -3.84375 C 6.617188 -3.625 5.960938 -3.515625 5.203125 -3.515625 L 3.328125 -3.515625 L 3.328125 -0.34375 C 3.328125 -0.25 3.296875 -0.164062 3.234375 -0.09375 C 3.171875 -0.03125 3.085938 0 2.984375 0 Z M 3.296875 -5.25 L 5.140625 -5.25 C 5.617188 -5.25 5.988281 -5.363281 6.25 -5.59375 C 6.507812 -5.832031 6.640625 -6.179688 6.640625 -6.640625 C 6.640625 -7.054688 6.519531 -7.394531 6.28125 -7.65625 C 6.039062 -7.914062 5.660156 -8.046875 5.140625 -8.046875 L 3.296875 -8.046875 Z M 3.296875 -5.25 "/></g></g></g><g fill="#3d1900" fill-opacity="1"><g transform="translate(243.055303, 293.95044)"><g><path d="M 1.375 0 C 1.28125 0 1.195312 -0.03125 1.125 -0.09375 C 1.0625 -0.164062 1.03125 -0.25 1.03125 -0.34375 L 1.03125 -9.453125 C 1.03125 -9.554688 1.0625 -9.640625 1.125 -9.703125 C 1.195312 -9.765625 1.28125 -9.796875 1.375 -9.796875 L 2.984375 -9.796875 C 3.078125 -9.796875 3.15625 -9.765625 3.21875 -9.703125 C 3.28125 -9.640625 3.3125 -9.554688 3.3125 -9.453125 L 3.3125 -0.34375 C 3.3125 -0.25 3.28125 -0.164062 3.21875 -0.09375 C 3.15625 -0.03125 3.078125 0 2.984375 0 Z M 1.375 0 "/></g></g></g><g fill="#3d1900" fill-opacity="1"><g transform="translate(251.606877, 293.95044)"><g><path d="M 1.375 0 C 1.28125 0 1.195312 -0.03125 1.125 -0.09375 C 1.0625 -0.164062 1.03125 -0.25 1.03125 -0.34375 L 1.03125 -9.453125 C 1.03125 -9.554688 1.0625 -9.640625 1.125 -9.703125 C 1.195312 -9.765625 1.28125 -9.796875 1.375 -9.796875 L 4.90625 -9.796875 C 5.832031 -9.796875 6.609375 -9.648438 7.234375 -9.359375 C 7.859375 -9.066406 8.335938 -8.632812 8.671875 -8.0625 C 9.003906 -7.5 9.179688 -6.804688 9.203125 -5.984375 C 9.210938 -5.566406 9.21875 -5.203125 9.21875 -4.890625 C 9.21875 -4.585938 9.210938 -4.238281 9.203125 -3.84375 C 9.171875 -2.96875 8.992188 -2.242188 8.671875 -1.671875 C 8.359375 -1.109375 7.894531 -0.6875 7.28125 -0.40625 C 6.675781 -0.132812 5.90625 0 4.96875 0 Z M 3.265625 -1.8125 L 4.90625 -1.8125 C 5.363281 -1.8125 5.738281 -1.878906 6.03125 -2.015625 C 6.332031 -2.148438 6.554688 -2.367188 6.703125 -2.671875 C 6.859375 -2.984375 6.9375 -3.378906 6.9375 -3.859375 C 6.945312 -4.128906 6.953125 -4.367188 6.953125 -4.578125 C 6.960938 -4.796875 6.960938 -5.015625 6.953125 -5.234375 C 6.953125 -5.453125 6.945312 -5.691406 6.9375 -5.953125 C 6.925781 -6.648438 6.75 -7.160156 6.40625 -7.484375 C 6.0625 -7.816406 5.535156 -7.984375 4.828125 -7.984375 L 3.265625 -7.984375 Z M 3.265625 -1.8125 "/></g></g></g><g fill="#3d1900" fill-opacity="1"><g transform="translate(265.72734, 293.95044)"><g><path d="M 0.46875 0 C 0.382812 0 0.3125 -0.03125 0.25 -0.09375 C 0.195312 -0.15625 0.171875 -0.222656 0.171875 -0.296875 C 0.171875 -0.335938 0.175781 -0.378906 0.1875 -0.421875 L 3.515625 -9.421875 C 3.546875 -9.523438 3.601562 -9.613281 3.6875 -9.6875 C 3.769531 -9.757812 3.882812 -9.796875 4.03125 -9.796875 L 5.828125 -9.796875 C 5.972656 -9.796875 6.085938 -9.757812 6.171875 -9.6875 C 6.253906 -9.613281 6.316406 -9.523438 6.359375 -9.421875 L 9.671875 -0.421875 C 9.691406 -0.378906 9.703125 -0.335938 9.703125 -0.296875 C 9.703125 -0.222656 9.671875 -0.15625 9.609375 -0.09375 C 9.546875 -0.03125 9.472656 0 9.390625 0 L 7.921875 0 C 7.796875 0 7.695312 -0.03125 7.625 -0.09375 C 7.5625 -0.164062 7.519531 -0.226562 7.5 -0.28125 L 6.90625 -1.84375 L 2.953125 -1.84375 L 2.359375 -0.28125 C 2.335938 -0.226562 2.296875 -0.164062 2.234375 -0.09375 C 2.171875 -0.03125 2.070312 0 1.9375 0 Z M 3.484375 -3.65625 L 6.375 -3.65625 L 4.921875 -7.671875 Z M 3.484375 -3.65625 "/></g></g></g></svg>