<svg xmlns="http://www.w3.org/2000/svg" xmlns:xlink="http://www.w3.org/1999/xlink" width="500" zoomAndPan="magnify" viewBox="0 0 375 374.999991" height="500" preserveAspectRatio="xMidYMid meet" version="1.0"><path fill="#361d06" d="M 38.125 45.003906 C 44.398438 27.488281 66.886719 19.246094 83.308594 31.667969 C 85.464844 33.308594 87.355469 35.210938 88.980469 37.375 C 90.609375 39.542969 91.910156 41.886719 92.882812 44.414062 C 105.339844 41.015625 119.246094 47.585938 123.863281 60.265625 C 124.773438 60.261719 125.679688 60.324219 126.585938 60.449219 C 127.488281 60.574219 128.378906 60.765625 129.253906 61.015625 C 130.128906 61.269531 130.984375 61.582031 131.816406 61.957031 C 132.648438 62.328125 133.449219 62.761719 134.21875 63.246094 C 134.988281 63.734375 135.722656 64.273438 136.417969 64.867188 C 137.109375 65.457031 137.757812 66.09375 138.363281 66.777344 C 138.964844 67.460938 139.515625 68.183594 140.019531 68.945312 C 140.519531 69.707031 140.964844 70.5 141.351562 71.324219 C 142.414062 70.503906 143.535156 69.777344 144.722656 69.148438 C 145.910156 68.519531 147.140625 67.996094 148.417969 67.578125 C 149.691406 67.160156 150.996094 66.851562 152.324219 66.65625 C 153.652344 66.460938 154.988281 66.382812 156.332031 66.414062 C 157.671875 66.449219 159.003906 66.59375 160.320312 66.855469 C 161.636719 67.117188 162.925781 67.488281 164.179688 67.96875 C 165.429688 68.449219 166.636719 69.035156 167.789062 69.722656 C 168.941406 70.40625 170.03125 71.1875 171.050781 72.0625 C 172.285156 71.292969 173.570312 70.617188 174.898438 70.027344 C 176.230469 69.4375 177.59375 68.941406 178.992188 68.539062 C 180.390625 68.136719 181.808594 67.832031 183.25 67.625 C 184.6875 67.414062 186.136719 67.308594 187.589844 67.300781 C 189.046875 67.292969 190.496094 67.382812 191.9375 67.574219 C 193.378906 67.765625 194.800781 68.050781 196.207031 68.4375 C 197.609375 68.824219 198.976562 69.304688 200.3125 69.878906 C 201.652344 70.453125 202.941406 71.117188 204.1875 71.871094 C 205.085938 71.121094 206.035156 70.445312 207.03125 69.835938 C 208.03125 69.230469 209.070312 68.699219 210.148438 68.25 C 211.226562 67.796875 212.332031 67.425781 213.464844 67.136719 C 214.597656 66.847656 215.746094 66.648438 216.90625 66.53125 C 218.070312 66.410156 219.234375 66.382812 220.402344 66.4375 C 221.570312 66.492188 222.726562 66.636719 223.875 66.863281 C 225.019531 67.089844 226.144531 67.402344 227.246094 67.796875 C 228.34375 68.191406 229.410156 68.667969 230.4375 69.222656 C 235.101562 63.8125 242.339844 63.128906 247.914062 65.878906 L 249.859375 60.132812 C 260.417969 36.078125 291.558594 54.164062 275.386719 75.742188 L 282.105469 72.960938 C 282.347656 72.859375 282.597656 72.808594 282.859375 72.8125 C 283.117188 72.8125 283.367188 72.863281 283.609375 72.964844 C 283.851562 73.0625 284.0625 73.207031 284.246094 73.394531 C 284.429688 73.578125 284.570312 73.792969 284.667969 74.035156 L 287.863281 81.738281 C 287.960938 81.980469 288.011719 82.230469 288.011719 82.492188 C 288.011719 82.75 287.960938 83 287.859375 83.242188 C 287.757812 83.480469 287.613281 83.695312 287.429688 83.878906 C 287.242188 84.058594 287.03125 84.199219 286.789062 84.300781 L 285.027344 85.035156 C 297.628906 92.394531 310.199219 107.265625 317.496094 125.324219 L 363.660156 240.347656 C 370.097656 256.398438 369.585938 271.167969 359.851562 281.984375 C 363.535156 296.773438 329.410156 310.835938 316.324219 316.230469 L 315.140625 316.714844 L 315.042969 316.761719 C 301.996094 322.175781 266.773438 337.152344 258.730469 323.832031 C 244.195312 323.050781 233.386719 312.972656 226.589844 297.082031 L 187.515625 205.738281 L 148.441406 297.082031 C 141.644531 312.972656 130.835938 323.050781 116.296875 323.832031 C 108.257812 337.152344 73.035156 322.175781 59.988281 316.761719 L 59.890625 316.714844 L 58.707031 316.230469 C 45.621094 310.835938 11.519531 296.773438 15.199219 281.984375 C 5.441406 271.167969 4.933594 256.398438 11.371094 240.347656 L 57.535156 125.324219 L 57.570312 125.234375 C 56.546875 125.34375 55.523438 125.386719 54.492188 125.359375 C 51.472656 125.28125 48.589844 124.613281 45.839844 123.367188 C 45.015625 123.617188 44.179688 123.828125 43.332031 124.003906 C 42.488281 124.179688 41.636719 124.316406 40.78125 124.417969 C 39.921875 124.515625 39.0625 124.578125 38.199219 124.601562 C 37.335938 124.625 36.472656 124.613281 35.613281 124.558594 C 34.75 124.507812 33.894531 124.417969 33.039062 124.289062 C 32.183594 124.160156 31.339844 123.992188 30.5 123.789062 C 29.660156 123.585938 28.832031 123.347656 28.015625 123.070312 C 27.199219 122.792969 26.394531 122.480469 25.605469 122.132812 C 24.8125 121.785156 24.042969 121.402344 23.285156 120.984375 C 22.527344 120.570312 21.792969 120.121094 21.078125 119.640625 C 20.359375 119.15625 19.667969 118.644531 18.996094 118.101562 C 18.324219 117.558594 17.679688 116.988281 17.058594 116.386719 C 16.441406 115.785156 15.847656 115.160156 15.285156 114.507812 C 14.71875 113.855469 14.183594 113.179688 13.679688 112.480469 C 13.175781 111.777344 12.703125 111.058594 12.261719 110.316406 C 11.820312 109.574219 11.414062 108.8125 11.042969 108.035156 C 10.667969 107.257812 10.332031 106.464844 10.027344 105.65625 C 9.726562 104.851562 9.457031 104.03125 9.230469 103.199219 C 9 102.367188 8.804688 101.527344 8.648438 100.679688 C 8.496094 99.832031 8.375 98.976562 8.296875 98.117188 C 8.214844 97.257812 8.175781 96.398438 8.171875 95.535156 C 8.167969 94.671875 8.203125 93.8125 8.273438 92.953125 C 8.347656 92.09375 8.457031 91.238281 8.605469 90.386719 C 8.757812 89.539062 8.941406 88.695312 9.164062 87.863281 C 9.386719 87.03125 9.648438 86.207031 9.945312 85.398438 C 10.242188 84.585938 10.570312 83.792969 10.9375 83.011719 C 11.304688 82.230469 11.707031 81.464844 12.140625 80.722656 C 12.574219 79.976562 13.042969 79.25 13.539062 78.546875 C 14.039062 77.84375 14.566406 77.160156 15.125 76.503906 C 15.683594 75.847656 16.273438 75.214844 16.886719 74.609375 C 17.503906 74.003906 18.144531 73.429688 18.808594 72.878906 C 19.476562 72.332031 20.164062 71.8125 20.878906 71.324219 C 16.113281 59.847656 23.910156 45.269531 38.125 45.023438 " fill-opacity="1" fill-rule="nonzero"/><path fill="#f9b32f" d="M 65.515625 303.347656 C 77.226562 307.980469 89.390625 313.257812 101.292969 317.472656 C 122.210938 324.890625 136.476562 315.046875 144.828125 295.546875 L 164.613281 249.289062 C 117.324219 240.988281 73.675781 222.179688 33.96875 194.605469 L 15.023438 241.8125 C 7.097656 261.496094 10.238281 278.539062 30.28125 288.082031 C 41.863281 293.59375 53.261719 298.0625 65.515625 303.347656 " fill-opacity="1" fill-rule="nonzero"/><path fill="#f1892d" d="M 44.921875 201.921875 C 41.238281 199.550781 37.589844 197.113281 33.96875 194.605469 L 15.023438 241.8125 C 7.097656 261.496094 10.238281 278.539062 30.28125 288.082031 C 41.402344 293.375 52.371094 297.703125 64.042969 302.710938 C 40.148438 291.84375 16.015625 273.128906 27.277344 245.375 Z M 75.679688 307.453125 L 79.148438 308.863281 C 78.050781 308.378906 76.9375 307.902344 75.679688 307.453125 Z M 75.679688 307.453125 " fill-opacity="1" fill-rule="nonzero"/><path fill="#c5c4bf" d="M 149.515625 209.183594 C 147.328125 209.300781 145.144531 209.214844 142.96875 208.929688 C 140.792969 208.640625 138.664062 208.160156 136.574219 207.484375 C 134.488281 206.804688 132.480469 205.945312 130.554688 204.898438 C 128.625 203.851562 126.808594 202.636719 125.105469 201.257812 C 97.523438 191.195312 71.574219 177.933594 47.261719 161.476562 L 35.480469 190.859375 C 75.246094 218.550781 118.808594 237.398438 166.203125 245.574219 L 178.722656 216.246094 C 168.972656 214.304688 158.941406 211.871094 149.496094 209.183594 " fill-opacity="1" fill-rule="nonzero"/><path fill="#999999" d="M 58.402344 168.695312 C 54.652344 166.367188 50.9375 163.960938 47.261719 161.476562 L 35.480469 190.859375 C 39.09375 193.378906 42.742188 195.828125 46.429688 198.21875 Z M 149.515625 209.167969 C 147.328125 209.285156 145.144531 209.199219 142.96875 208.914062 C 140.792969 208.628906 138.664062 208.144531 136.574219 207.46875 C 134.488281 206.792969 132.480469 205.929688 130.554688 204.882812 C 128.625 203.835938 126.808594 202.625 125.105469 201.242188 C 118.234375 198.75 111.472656 196.054688 104.824219 193.148438 C 114.289062 216.585938 139.738281 227.25 166.933594 213.679688 C 161.042969 212.3125 155.179688 210.789062 149.515625 209.183594 Z M 149.515625 209.167969 " fill-opacity="1" fill-rule="nonzero"/><path fill="#f5e3b9" d="M 119.648438 133.183594 C 121.378906 135.101562 118.457031 137.738281 116.703125 135.808594 C 114.386719 133.328125 112.667969 130.480469 111.550781 127.273438 C 110.953125 127.792969 110.390625 128.34375 109.859375 128.933594 C 109.332031 129.519531 108.839844 130.136719 108.386719 130.785156 C 107.933594 131.429688 107.523438 132.105469 107.152344 132.800781 C 106.785156 133.5 106.457031 134.21875 106.175781 134.957031 C 105.894531 135.691406 105.65625 136.445312 105.46875 137.210938 C 105.277344 137.980469 105.136719 138.753906 105.039062 139.539062 C 104.945312 140.324219 104.898438 141.109375 104.902344 141.902344 C 104.90625 142.691406 104.953125 143.476562 105.054688 144.261719 C 105.152344 145.042969 105.300781 145.820312 105.492188 146.585938 C 105.6875 147.351562 105.925781 148.101562 106.214844 148.839844 C 106.5 149.574219 106.828125 150.289062 107.203125 150.988281 C 107.578125 151.683594 107.992188 152.351562 108.449219 152.996094 C 108.90625 153.644531 109.398438 154.257812 109.933594 154.839844 C 110.464844 155.425781 111.03125 155.976562 111.628906 156.492188 C 112.230469 157.003906 112.859375 157.480469 113.515625 157.917969 C 114.171875 158.355469 114.855469 158.753906 115.5625 159.109375 C 118.222656 160.433594 121.042969 161.113281 124.015625 161.136719 C 126.601562 161.136719 126.570312 165.082031 124.015625 165.0625 C 121.664062 165.039062 119.363281 164.667969 117.125 163.949219 C 116.9375 164.5625 116.769531 165.179688 116.621094 165.800781 C 116.472656 166.421875 116.339844 167.046875 116.230469 167.675781 C 116.117188 168.308594 116.027344 168.941406 115.953125 169.574219 C 115.878906 170.210938 115.824219 170.847656 115.789062 171.484375 C 115.753906 172.125 115.738281 172.761719 115.738281 173.402344 C 115.742188 174.042969 115.765625 174.679688 115.804688 175.320312 C 115.847656 175.957031 115.90625 176.59375 115.984375 177.226562 C 116.066406 177.863281 116.164062 178.492188 116.28125 179.121094 C 116.398438 179.75 116.53125 180.375 116.6875 180.996094 C 116.84375 181.617188 117.015625 182.230469 117.207031 182.84375 C 117.398438 183.453125 117.605469 184.054688 117.835938 184.652344 C 118.0625 185.25 118.308594 185.84375 118.570312 186.425781 C 118.832031 187.007812 119.113281 187.582031 119.410156 188.148438 C 119.707031 188.714844 120.023438 189.273438 120.351562 189.820312 C 120.683594 190.367188 121.03125 190.902344 121.394531 191.429688 C 121.757812 191.957031 122.136719 192.472656 122.527344 192.976562 C 122.921875 193.480469 123.332031 193.972656 123.753906 194.453125 C 124.179688 194.929688 124.617188 195.398438 125.066406 195.851562 C 125.519531 196.304688 125.984375 196.742188 126.460938 197.167969 C 126.9375 197.59375 127.425781 198.007812 127.929688 198.402344 C 128.433594 198.796875 128.945312 199.179688 129.472656 199.546875 C 129.996094 199.910156 130.53125 200.261719 131.078125 200.59375 C 131.625 200.925781 132.179688 201.242188 132.742188 201.542969 C 133.308594 201.84375 133.882812 202.128906 134.464844 202.394531 C 135.046875 202.660156 135.636719 202.90625 136.234375 203.136719 C 136.828125 203.367188 137.433594 203.582031 138.042969 203.777344 C 138.652344 203.96875 139.265625 204.148438 139.886719 204.304688 C 140.507812 204.460938 141.132812 204.601562 141.761719 204.722656 C 142.386719 204.84375 143.019531 204.945312 143.65625 205.027344 C 144.289062 205.109375 144.925781 205.171875 145.5625 205.214844 C 146.203125 205.261719 146.839844 205.285156 147.480469 205.292969 C 148.121094 205.300781 148.761719 205.285156 149.398438 205.253906 C 149.5625 205.226562 149.722656 205.226562 149.886719 205.253906 C 152.015625 205.109375 154.105469 204.757812 156.164062 204.199219 C 158.222656 203.636719 160.207031 202.878906 162.113281 201.925781 C 164.019531 200.96875 165.8125 199.832031 167.492188 198.519531 C 169.175781 197.207031 170.707031 195.738281 172.09375 194.121094 C 170.589844 194.179688 169.085938 194.117188 167.589844 193.9375 C 165.011719 193.628906 165.488281 189.710938 168.066406 190.027344 C 170.5625 190.34375 173.046875 190.261719 175.519531 189.785156 C 175.808594 189.636719 176.121094 189.570312 176.445312 189.585938 C 191.964844 185.90625 200.429688 166.644531 189.589844 152.476562 C 187.378906 149.582031 184.636719 147.328125 181.367188 145.714844 C 179.046875 144.566406 180.792969 141.042969 183.113281 142.191406 C 185.550781 143.390625 187.757812 144.921875 189.738281 146.78125 C 190.574219 146.128906 191.351562 145.410156 192.070312 144.628906 C 192.785156 143.847656 193.4375 143.011719 194.015625 142.125 C 194.59375 141.234375 195.097656 140.304688 195.523438 139.332031 C 195.949219 138.363281 196.292969 137.363281 196.554688 136.335938 C 196.816406 135.304688 196.992188 134.265625 197.082031 133.207031 C 197.167969 132.148438 197.171875 131.09375 197.085938 130.035156 C 197 128.976562 196.828125 127.933594 196.570312 126.90625 C 196.3125 125.878906 195.972656 124.875 195.550781 123.902344 C 194.519531 121.542969 198.125 119.972656 199.15625 122.328125 C 200.21875 124.769531 200.847656 127.320312 201.042969 129.972656 C 201.714844 130.140625 202.398438 130.269531 203.082031 130.363281 C 203.769531 130.457031 204.460938 130.511719 205.15625 130.53125 C 205.847656 130.550781 206.539062 130.535156 207.230469 130.480469 C 207.921875 130.429688 208.609375 130.339844 209.292969 130.210938 C 209.972656 130.085938 210.648438 129.921875 211.3125 129.726562 C 211.976562 129.527344 212.628906 129.292969 213.269531 129.027344 C 213.90625 128.757812 214.53125 128.457031 215.140625 128.125 C 215.746094 127.792969 216.335938 127.425781 216.90625 127.03125 C 217.472656 126.632812 218.019531 126.210938 218.546875 125.753906 C 219.070312 125.300781 219.566406 124.820312 220.039062 124.3125 C 220.511719 123.804688 220.957031 123.273438 221.375 122.722656 C 221.789062 122.167969 222.175781 121.589844 222.53125 120.996094 C 222.886719 120.402344 223.207031 119.789062 223.5 119.160156 C 223.789062 118.53125 224.042969 117.886719 224.265625 117.230469 C 224.488281 116.574219 224.671875 115.90625 224.824219 115.230469 C 224.972656 114.554688 225.089844 113.871094 225.167969 113.183594 C 225.1875 112.863281 225.285156 112.566406 225.460938 112.296875 C 225.636719 112.03125 225.867188 111.820312 226.152344 111.671875 C 226.550781 111.457031 226.972656 111.390625 227.421875 111.46875 C 228.21875 111.589844 229.023438 111.664062 229.832031 111.691406 C 230.636719 111.714844 231.445312 111.6875 232.25 111.613281 C 233.054688 111.539062 233.851562 111.414062 234.640625 111.242188 C 235.429688 111.066406 236.207031 110.84375 236.96875 110.574219 C 237.730469 110.304688 238.472656 109.992188 239.195312 109.628906 C 239.917969 109.269531 240.617188 108.863281 241.289062 108.414062 C 241.964844 107.96875 242.605469 107.480469 243.21875 106.953125 C 243.832031 106.425781 244.410156 105.863281 244.953125 105.265625 C 245.496094 104.664062 246 104.035156 246.464844 103.375 C 246.929688 102.714844 247.351562 102.027344 247.730469 101.3125 C 248.109375 100.601562 248.445312 99.867188 248.734375 99.113281 C 249.023438 98.359375 249.265625 97.589844 249.457031 96.804688 C 249.652344 96.019531 249.796875 95.226562 249.890625 94.425781 C 249.988281 93.621094 250.035156 92.816406 250.027344 92.007812 C 250.023438 91.203125 249.972656 90.398438 249.867188 89.59375 C 249.761719 88.792969 249.609375 88.003906 249.410156 87.21875 C 249.367188 87.09375 249.339844 86.964844 249.328125 86.832031 C 249.246094 86.261719 249.402344 85.773438 249.800781 85.359375 C 250.230469 84.796875 250.597656 84.195312 250.910156 83.558594 C 251.21875 82.921875 251.460938 82.261719 251.640625 81.574219 C 251.816406 80.890625 251.925781 80.195312 251.960938 79.488281 C 252 78.78125 251.964844 78.074219 251.863281 77.375 C 251.757812 76.675781 251.585938 75.992188 251.347656 75.324219 C 251.105469 74.660156 250.800781 74.023438 250.433594 73.417969 C 250.066406 72.8125 249.640625 72.25 249.160156 71.730469 C 248.679688 71.210938 248.148438 70.746094 247.574219 70.332031 C 247 69.917969 246.390625 69.5625 245.746094 69.273438 C 245.101562 68.980469 244.429688 68.753906 243.742188 68.597656 C 243.050781 68.4375 242.351562 68.351562 241.640625 68.332031 C 240.933594 68.3125 240.230469 68.367188 239.53125 68.488281 C 238.835938 68.613281 238.15625 68.804688 237.496094 69.0625 C 236.835938 69.320312 236.210938 69.640625 235.613281 70.027344 C 235.019531 70.410156 234.46875 70.851562 233.960938 71.347656 C 233.457031 71.839844 233.003906 72.382812 232.605469 72.964844 C 232.332031 73.398438 231.949219 73.675781 231.457031 73.796875 C 230.894531 73.953125 230.378906 73.863281 229.902344 73.53125 C 229.066406 72.992188 228.199219 72.519531 227.292969 72.113281 C 226.386719 71.707031 225.457031 71.371094 224.5 71.105469 C 223.542969 70.839844 222.570312 70.648438 221.582031 70.53125 C 220.597656 70.414062 219.609375 70.371094 218.617188 70.402344 C 217.621094 70.4375 216.636719 70.542969 215.660156 70.726562 C 214.6875 70.910156 213.730469 71.164062 212.792969 71.492188 C 211.855469 71.820312 210.945312 72.214844 210.070312 72.679688 C 209.191406 73.148438 208.355469 73.675781 207.558594 74.269531 C 208.554688 75.066406 209.492188 75.921875 210.378906 76.835938 C 212.183594 78.683594 209.371094 81.429688 207.558594 79.574219 C 206.855469 78.855469 206.109375 78.175781 205.332031 77.535156 C 204.550781 76.898438 203.738281 76.300781 202.890625 75.753906 C 202.046875 75.203125 201.175781 74.699219 200.273438 74.246094 C 199.375 73.789062 198.453125 73.382812 197.507812 73.03125 C 196.5625 72.675781 195.601562 72.375 194.625 72.125 C 193.644531 71.875 192.660156 71.679688 191.660156 71.539062 C 190.660156 71.398438 189.65625 71.3125 188.648438 71.28125 C 187.640625 71.246094 186.632812 71.269531 185.628906 71.347656 C 184.621094 71.425781 183.625 71.558594 182.632812 71.746094 C 181.640625 71.933594 180.664062 72.175781 179.699219 72.46875 C 178.734375 72.761719 177.785156 73.109375 176.859375 73.503906 C 175.933594 73.902344 175.03125 74.347656 174.152344 74.84375 C 173.273438 75.339844 172.425781 75.882812 171.605469 76.472656 C 170.785156 77.0625 170.003906 77.691406 169.253906 78.367188 C 168.503906 79.039062 167.792969 79.753906 167.117188 80.503906 C 166.445312 81.257812 165.816406 82.042969 165.230469 82.863281 C 163.757812 84.960938 160.535156 82.679688 162.027344 80.582031 C 163.660156 78.289062 165.566406 76.253906 167.742188 74.46875 C 167.109375 73.976562 166.449219 73.527344 165.761719 73.121094 C 165.074219 72.710938 164.363281 72.347656 163.628906 72.027344 C 162.898438 71.703125 162.148438 71.429688 161.378906 71.199219 C 160.613281 70.96875 159.835938 70.789062 159.046875 70.652344 C 158.257812 70.519531 157.464844 70.433594 156.664062 70.394531 C 155.863281 70.359375 155.066406 70.371094 154.269531 70.429688 C 153.46875 70.492188 152.679688 70.601562 151.894531 70.757812 C 151.109375 70.914062 150.335938 71.121094 149.578125 71.371094 C 148.816406 71.625 148.078125 71.921875 147.355469 72.265625 C 146.628906 72.605469 145.929688 72.992188 145.253906 73.421875 C 144.578125 73.847656 143.933594 74.316406 143.3125 74.824219 C 142.695312 75.332031 142.109375 75.875 141.558594 76.457031 C 141.007812 77.035156 140.492188 77.644531 140.015625 78.289062 C 139.539062 78.929688 139.101562 79.601562 138.707031 80.296875 C 138.3125 80.992188 137.960938 81.707031 137.65625 82.445312 C 137.347656 83.1875 137.085938 83.941406 136.875 84.710938 C 136.851562 84.832031 136.820312 84.949219 136.777344 85.0625 C 136.726562 85.277344 136.675781 85.492188 136.628906 85.703125 C 136 88.523438 136 91.339844 136.628906 94.160156 C 137.191406 96.683594 133.355469 97.53125 132.792969 95.003906 C 132.222656 92.449219 132.085938 89.871094 132.382812 87.273438 C 122.625 91.105469 115.910156 97.964844 113.875 107.933594 C 112.167969 116.207031 113.875 126.25 118.824219 132.21875 C 119.046875 132.484375 119.324219 132.808594 119.671875 133.191406 " fill-opacity="1" fill-rule="nonzero"/><path fill="#c5c4bf" d="M 253.9375 93.660156 L 283.472656 81.429688 L 281.773438 77.34375 L 268.105469 83.003906 C 267.972656 83.082031 267.828125 83.140625 267.679688 83.179688 L 253.789062 88.988281 C 254.007812 90.550781 254.070312 92.121094 253.972656 93.695312 " fill-opacity="1" fill-rule="nonzero"/><path fill="#c5c4bf" d="M 261.574219 81.464844 L 266.183594 79.558594 C 291.042969 59.292969 261.765625 41.125 253.464844 61.804688 L 251.308594 68.210938 C 252.496094 69.28125 253.46875 70.519531 254.226562 71.925781 C 254.984375 73.332031 255.484375 74.824219 255.726562 76.402344 C 256.433594 76.410156 257.117188 76.542969 257.78125 76.792969 C 258.441406 77.042969 259.039062 77.402344 259.574219 77.863281 C 260.105469 78.328125 260.542969 78.871094 260.886719 79.488281 C 261.226562 80.109375 261.453125 80.765625 261.558594 81.464844 " fill-opacity="1" fill-rule="nonzero"/><path fill="#ffffff" d="M 254.871094 84.238281 L 257.382812 83.203125 C 257.410156 83.125 257.441406 83.046875 257.480469 82.972656 C 257.542969 82.835938 257.589844 82.6875 257.617188 82.535156 C 257.644531 82.386719 257.652344 82.234375 257.644531 82.078125 C 257.632812 81.925781 257.605469 81.777344 257.558594 81.628906 C 257.511719 81.484375 257.445312 81.34375 257.363281 81.214844 C 257.28125 81.082031 257.1875 80.964844 257.074219 80.859375 C 256.964844 80.75 256.839844 80.660156 256.707031 80.582031 C 256.574219 80.507812 256.433594 80.449219 256.285156 80.40625 C 256.136719 80.367188 255.984375 80.34375 255.832031 80.339844 C 255.652344 81.675781 255.332031 82.972656 254.871094 84.238281 " fill-opacity="1" fill-rule="nonzero"/><path fill="#f9b32f" d="M 185.378906 200.742188 L 181.625 191.964844 C 180.324219 192.515625 178.988281 192.964844 177.617188 193.3125 C 176.492188 194.996094 175.234375 196.578125 173.839844 198.046875 C 172.445312 199.519531 170.9375 200.863281 169.316406 202.078125 C 167.691406 203.292969 165.976562 204.359375 164.171875 205.285156 C 162.367188 206.207031 160.496094 206.96875 158.558594 207.570312 C 165.761719 209.457031 172.839844 211.074219 180.320312 212.554688 Z M 185.378906 200.742188 " fill-opacity="1" fill-rule="nonzero"/><path fill="#f1892d" d="M 185.378906 200.742188 L 181.625 191.964844 C 180.324219 192.515625 178.988281 192.964844 177.617188 193.3125 C 176.492188 194.996094 175.234375 196.578125 173.839844 198.046875 C 172.445312 199.519531 170.9375 200.863281 169.316406 202.078125 C 167.691406 203.292969 165.976562 204.359375 164.171875 205.285156 C 162.367188 206.207031 160.496094 206.96875 158.558594 207.570312 C 163.074219 208.757812 167.535156 209.832031 172.082031 210.832031 C 176.84375 207.902344 181.277344 204.542969 185.378906 200.742188 " fill-opacity="1" fill-rule="nonzero"/><path fill="#f9b32f" d="M 210.417969 249.289062 L 230.226562 295.546875 C 238.570312 315.046875 252.839844 324.890625 273.761719 317.472656 C 285.660156 313.257812 297.828125 307.980469 309.527344 303.347656 C 321.789062 298.0625 333.179688 293.59375 344.769531 288.082031 C 364.816406 278.515625 367.929688 261.496094 360.03125 241.8125 L 341.082031 194.605469 C 301.316406 222.1875 257.789062 240.964844 210.4375 249.289062 " fill-opacity="1" fill-rule="nonzero"/><path fill="#f1892d" d="M 286.367188 312.691406 C 294.144531 309.609375 301.921875 306.339844 309.503906 303.332031 C 321.765625 298.046875 333.160156 293.582031 344.75 288.070312 C 364.792969 278.503906 367.910156 261.480469 360.007812 241.796875 L 341.058594 194.589844 C 337.054688 197.367188 333.011719 200.054688 328.933594 202.648438 L 342.796875 237.972656 C 359.519531 280.5625 327.761719 294.675781 286.367188 312.699219 " fill-opacity="1" fill-rule="nonzero"/><path fill="#c5c4bf" d="M 196.285156 216.246094 L 208.804688 245.574219 C 256.132812 237.410156 299.867188 218.535156 339.527344 190.859375 L 327.746094 161.476562 C 317.84375 168.179688 307.628906 174.371094 297.105469 180.050781 C 286.582031 185.730469 275.800781 190.871094 264.761719 195.46875 C 253.722656 200.066406 242.480469 204.101562 231.035156 207.574219 C 219.589844 211.046875 208 213.9375 196.261719 216.246094 " fill-opacity="1" fill-rule="nonzero"/><path fill="#999999" d="M 327.472656 198.941406 C 331.539062 196.335938 335.566406 193.636719 339.558594 190.84375 L 327.777344 161.460938 C 323.820312 164.125 319.828125 166.703125 315.808594 169.195312 Z M 327.472656 198.941406 " fill-opacity="1" fill-rule="nonzero"/><path fill="#f9b32f" d="M 185.136719 190.175781 L 194.710938 212.554688 C 206.457031 210.265625 218.0625 207.390625 229.519531 203.929688 C 240.976562 200.464844 252.226562 196.433594 263.273438 191.832031 C 274.324219 187.226562 285.109375 182.078125 295.636719 176.382812 C 306.160156 170.6875 316.371094 164.476562 326.265625 157.746094 L 313.851562 126.804688 C 306.390625 108.355469 293.097656 93.203125 280.34375 86.976562 L 253.1875 98.214844 C 252.832031 99.523438 252.367188 100.792969 251.796875 102.019531 C 251.222656 103.25 250.546875 104.421875 249.773438 105.53125 C 248.996094 106.644531 248.132812 107.683594 247.175781 108.644531 C 246.222656 109.609375 245.191406 110.484375 244.085938 111.269531 C 242.980469 112.054688 241.8125 112.738281 240.589844 113.320312 C 239.363281 113.90625 238.097656 114.382812 236.792969 114.746094 C 235.484375 115.113281 234.15625 115.363281 232.808594 115.5 C 231.457031 115.636719 230.105469 115.65625 228.753906 115.558594 C 228.601562 116.316406 228.414062 117.0625 228.1875 117.800781 C 227.960938 118.542969 227.699219 119.265625 227.402344 119.980469 C 227.105469 120.691406 226.773438 121.390625 226.40625 122.070312 C 226.042969 122.75 225.644531 123.410156 225.210938 124.050781 C 224.78125 124.691406 224.320312 125.3125 223.828125 125.90625 C 223.335938 126.503906 222.8125 127.070312 222.265625 127.617188 C 221.71875 128.160156 221.144531 128.675781 220.542969 129.164062 C 219.945312 129.652344 219.324219 130.109375 218.679688 130.535156 C 218.035156 130.960938 217.371094 131.355469 216.6875 131.714844 C 216.003906 132.078125 215.304688 132.402344 214.589844 132.695312 C 213.871094 132.988281 213.144531 133.242188 212.402344 133.464844 C 211.664062 133.683594 210.914062 133.867188 210.152344 134.015625 C 209.394531 134.160156 208.632812 134.269531 207.863281 134.339844 C 207.09375 134.410156 206.320312 134.445312 205.546875 134.441406 C 204.773438 134.433594 204.003906 134.390625 203.234375 134.3125 C 202.464844 134.230469 201.703125 134.113281 200.945312 133.957031 C 200.78125 135.480469 200.46875 136.972656 200.007812 138.4375 C 199.550781 139.898438 198.953125 141.304688 198.214844 142.648438 C 197.480469 143.992188 196.621094 145.253906 195.640625 146.433594 C 194.65625 147.609375 193.570312 148.679688 192.375 149.644531 C 201.390625 161.019531 200.394531 178.667969 187.558594 188.476562 C 186.765625 189.078125 185.945312 189.640625 185.105469 190.152344 " fill-opacity="1" fill-rule="nonzero"/><path fill="#f1892d" d="M 314.335938 165.515625 C 318.347656 163.019531 322.324219 160.441406 326.265625 157.777344 L 313.851562 126.832031 C 306.390625 108.382812 293.097656 93.230469 280.34375 87.007812 L 253.1875 98.214844 C 252.832031 99.523438 252.367188 100.792969 251.796875 102.019531 C 251.222656 103.25 250.546875 104.421875 249.773438 105.53125 C 248.996094 106.644531 248.132812 107.683594 247.175781 108.644531 C 246.222656 109.609375 245.191406 110.484375 244.085938 111.269531 C 242.980469 112.054688 241.8125 112.738281 240.589844 113.320312 C 239.363281 113.90625 238.097656 114.382812 236.792969 114.746094 C 235.484375 115.113281 234.15625 115.363281 232.808594 115.5 C 231.457031 115.636719 230.105469 115.65625 228.753906 115.558594 C 228.601562 116.316406 228.414062 117.0625 228.1875 117.800781 C 227.960938 118.542969 227.699219 119.265625 227.402344 119.980469 C 227.105469 120.691406 226.773438 121.390625 226.40625 122.070312 C 226.042969 122.75 225.644531 123.410156 225.210938 124.050781 C 224.78125 124.691406 224.320312 125.3125 223.828125 125.90625 C 223.335938 126.503906 222.8125 127.070312 222.265625 127.617188 C 221.71875 128.160156 221.144531 128.675781 220.542969 129.164062 C 219.945312 129.652344 219.324219 130.109375 218.679688 130.535156 C 218.035156 130.960938 217.371094 131.355469 216.6875 131.714844 C 216.003906 132.078125 215.304688 132.402344 214.589844 132.695312 C 213.871094 132.988281 213.144531 133.242188 212.402344 133.464844 C 211.664062 133.683594 210.914062 133.867188 210.152344 134.015625 C 209.394531 134.160156 208.632812 134.269531 207.863281 134.339844 C 207.09375 134.410156 206.320312 134.445312 205.546875 134.441406 C 204.773438 134.433594 204.003906 134.390625 203.234375 134.3125 C 202.464844 134.230469 201.703125 134.113281 200.945312 133.957031 C 200.78125 135.480469 200.46875 136.972656 200.007812 138.4375 C 199.550781 139.898438 198.953125 141.304688 198.214844 142.648438 C 197.480469 143.992188 196.621094 145.253906 195.640625 146.433594 C 194.65625 147.609375 193.570312 148.679688 192.375 149.644531 C 192.375 149.644531 219.871094 153.101562 234.746094 124.582031 C 249.289062 121.238281 255.144531 115.75 264.9375 105.527344 C 275.542969 94.492188 291.929688 109.398438 296.824219 120.980469 Z M 314.335938 165.515625 " fill-opacity="1" fill-rule="nonzero"/><path fill="#f9b32f" d="M 62.328125 124.199219 L 61.210938 126.804688 L 48.765625 157.746094 C 70.734375 172.691406 94.09375 185.007812 118.839844 194.695312 C 117.996094 193.558594 117.222656 192.375 116.515625 191.144531 C 115.8125 189.917969 115.183594 188.652344 114.628906 187.347656 C 114.074219 186.042969 113.601562 184.714844 113.203125 183.355469 C 112.808594 181.996094 112.492188 180.617188 112.257812 179.21875 C 112.027344 177.824219 111.875 176.417969 111.808594 175.003906 C 111.742188 173.589844 111.761719 172.175781 111.859375 170.761719 C 111.960938 169.351562 112.144531 167.949219 112.414062 166.558594 C 112.679688 165.167969 113.027344 163.796875 113.457031 162.449219 C 113.023438 162.222656 112.597656 161.980469 112.179688 161.730469 C 111.757812 161.476562 111.347656 161.210938 110.949219 160.929688 C 110.546875 160.652344 110.152344 160.359375 109.769531 160.054688 C 109.386719 159.75 109.011719 159.4375 108.648438 159.109375 C 108.285156 158.78125 107.933594 158.441406 107.59375 158.09375 C 107.25 157.742188 106.917969 157.382812 106.601562 157.011719 C 106.28125 156.640625 105.972656 156.261719 105.679688 155.871094 C 105.382812 155.480469 105.101562 155.082031 104.832031 154.675781 C 104.5625 154.265625 104.304688 153.851562 104.0625 153.425781 C 103.816406 153.003906 103.585938 152.570312 103.371094 152.132812 C 103.152344 151.695312 102.953125 151.25 102.761719 150.796875 C 102.574219 150.347656 102.402344 149.890625 102.242188 149.425781 C 102.082031 148.964844 101.9375 148.496094 101.808594 148.027344 C 101.679688 147.554688 101.5625 147.078125 101.464844 146.601562 C 101.363281 146.121094 101.277344 145.640625 101.207031 145.15625 C 101.140625 144.671875 101.085938 144.1875 101.046875 143.699219 C 101.007812 143.210938 100.984375 142.722656 100.976562 142.234375 C 100.96875 141.746094 100.976562 141.257812 101 140.769531 C 101.023438 140.28125 101.058594 139.792969 101.113281 139.308594 C 101.167969 138.820312 101.238281 138.335938 101.320312 137.855469 C 101.40625 137.375 101.503906 136.894531 101.617188 136.421875 C 101.734375 135.945312 101.863281 135.472656 102.007812 135.007812 C 102.152344 134.539062 102.308594 134.078125 102.484375 133.621094 C 102.65625 133.164062 102.84375 132.710938 103.046875 132.265625 C 103.25 131.820312 103.464844 131.382812 103.695312 130.949219 C 103.925781 130.519531 104.167969 130.09375 104.425781 129.679688 C 104.679688 129.261719 104.949219 128.855469 105.234375 128.453125 C 105.515625 128.054688 105.808594 127.664062 106.117188 127.285156 C 106.421875 126.902344 106.742188 126.53125 107.074219 126.171875 C 107.402344 125.8125 107.746094 125.460938 108.097656 125.121094 C 108.449219 124.78125 108.8125 124.457031 109.183594 124.140625 C 109.558594 123.824219 109.941406 123.519531 110.332031 123.226562 C 109.546875 120.066406 109.195312 116.859375 109.277344 113.601562 C 109.359375 110.34375 109.875 107.160156 110.820312 104.042969 C 109.921875 104.332031 109.011719 104.554688 108.082031 104.707031 C 107.152344 104.863281 106.21875 104.949219 105.277344 104.96875 C 104.332031 104.984375 103.394531 104.933594 102.460938 104.816406 C 101.527344 104.695312 100.605469 104.511719 99.699219 104.257812 C 98.792969 104 97.910156 103.683594 97.046875 103.300781 C 96.1875 102.914062 95.359375 102.472656 94.566406 101.964844 C 93.769531 101.460938 93.015625 100.902344 92.304688 100.285156 C 91.589844 99.671875 90.925781 99.007812 90.3125 98.296875 C 88.578125 99.945312 86.609375 101.226562 84.394531 102.136719 C 82.179688 103.050781 79.875 103.527344 77.484375 103.570312 C 77.449219 104.707031 77.328125 105.832031 77.125 106.949219 C 76.921875 108.0625 76.632812 109.160156 76.265625 110.230469 C 75.894531 111.304688 75.445312 112.34375 74.917969 113.347656 C 74.390625 114.355469 73.792969 115.316406 73.117188 116.230469 C 72.445312 117.144531 71.707031 118.003906 70.90625 118.804688 C 70.105469 119.609375 69.246094 120.347656 68.332031 121.023438 C 67.417969 121.695312 66.457031 122.296875 65.453125 122.824219 C 64.449219 123.355469 63.410156 123.804688 62.335938 124.175781 " fill-opacity="1" fill-rule="nonzero"/><path fill="#f1892d" d="M 62.328125 124.199219 L 61.210938 126.804688 L 48.765625 157.746094 C 52.445312 160.242188 56.15625 162.660156 59.898438 165 L 68.492188 143.839844 C 76.1875 126.40625 91.84375 128.449219 91.84375 128.449219 C 87.226562 150.527344 101.851562 160.761719 101.851562 160.761719 C 100.230469 170.84375 100.796875 180.074219 103.085938 188.09375 C 108.261719 190.414062 113.511719 192.621094 118.839844 194.714844 C 117.996094 193.578125 117.222656 192.394531 116.515625 191.167969 C 115.8125 189.9375 115.183594 188.671875 114.628906 187.371094 C 114.074219 186.066406 113.601562 184.734375 113.203125 183.375 C 112.808594 182.015625 112.492188 180.636719 112.257812 179.242188 C 112.027344 177.84375 111.875 176.441406 111.808594 175.023438 C 111.742188 173.609375 111.761719 172.199219 111.859375 170.785156 C 111.960938 169.371094 112.144531 167.972656 112.414062 166.582031 C 112.679688 165.191406 113.027344 163.820312 113.457031 162.46875 C 113.023438 162.242188 112.597656 162.003906 112.179688 161.75 C 111.757812 161.496094 111.347656 161.230469 110.949219 160.953125 C 110.546875 160.671875 110.152344 160.382812 109.769531 160.078125 C 109.386719 159.773438 109.011719 159.457031 108.648438 159.128906 C 108.285156 158.800781 107.933594 158.464844 107.59375 158.113281 C 107.25 157.765625 106.917969 157.402344 106.601562 157.035156 C 106.28125 156.664062 105.972656 156.28125 105.679688 155.894531 C 105.382812 155.503906 105.101562 155.105469 104.832031 154.695312 C 104.5625 154.289062 104.304688 153.871094 104.0625 153.449219 C 103.816406 153.023438 103.585938 152.59375 103.371094 152.152344 C 103.152344 151.714844 102.953125 151.269531 102.761719 150.820312 C 102.574219 150.367188 102.402344 149.910156 102.242188 149.449219 C 102.082031 148.988281 101.9375 148.519531 101.808594 148.046875 C 101.679688 147.578125 101.5625 147.101562 101.464844 146.625 C 101.363281 146.144531 101.277344 145.664062 101.207031 145.179688 C 101.140625 144.695312 101.085938 144.210938 101.046875 143.722656 C 101.007812 143.234375 100.984375 142.746094 100.976562 142.257812 C 100.96875 141.769531 100.976562 141.28125 101 140.792969 C 101.023438 140.304688 101.058594 139.816406 101.113281 139.328125 C 101.167969 138.84375 101.238281 138.359375 101.320312 137.878906 C 101.40625 137.394531 101.503906 136.917969 101.617188 136.441406 C 101.734375 135.96875 101.863281 135.496094 102.007812 135.027344 C 102.152344 134.5625 102.308594 134.097656 102.484375 133.640625 C 102.65625 133.183594 102.84375 132.734375 103.046875 132.289062 C 103.25 131.84375 103.464844 131.402344 103.695312 130.972656 C 103.925781 130.539062 104.167969 130.117188 104.425781 129.699219 C 104.679688 129.285156 104.949219 128.875 105.234375 128.476562 C 105.515625 128.078125 105.808594 127.6875 106.117188 127.304688 C 106.421875 126.925781 106.742188 126.554688 107.074219 126.195312 C 107.402344 125.832031 107.746094 125.484375 108.097656 125.144531 C 108.449219 124.804688 108.8125 124.476562 109.183594 124.160156 C 109.558594 123.84375 109.941406 123.539062 110.332031 123.25 C 109.546875 120.089844 109.195312 116.878906 109.277344 113.625 C 109.359375 110.367188 109.875 107.179688 110.820312 104.0625 C 109.921875 104.351562 109.007812 104.574219 108.082031 104.726562 C 107.152344 104.882812 106.214844 104.96875 105.273438 104.984375 C 104.332031 105.003906 103.390625 104.953125 102.457031 104.832031 C 101.523438 104.710938 100.601562 104.523438 99.695312 104.269531 C 98.789062 104.011719 97.90625 103.691406 97.046875 103.308594 C 96.183594 102.921875 95.359375 102.480469 94.5625 101.972656 C 93.769531 101.46875 93.015625 100.90625 92.300781 100.289062 C 91.589844 99.671875 90.925781 99.007812 90.3125 98.296875 C 88.578125 99.945312 86.609375 101.226562 84.394531 102.136719 C 82.179688 103.050781 79.875 103.527344 77.484375 103.570312 C 77.449219 104.707031 77.328125 105.832031 77.125 106.949219 C 76.921875 108.0625 76.632812 109.160156 76.265625 110.230469 C 75.894531 111.304688 75.445312 112.34375 74.917969 113.347656 C 74.390625 114.355469 73.792969 115.316406 73.117188 116.230469 C 72.445312 117.144531 71.707031 118.003906 70.90625 118.804688 C 70.105469 119.609375 69.246094 120.347656 68.332031 121.023438 C 67.417969 121.695312 66.457031 122.296875 65.453125 122.824219 C 64.449219 123.355469 63.410156 123.804688 62.335938 124.175781 " fill-opacity="1" fill-rule="nonzero"/><path fill="#f5e3b9" d="M 40.40625 56.285156 C 40.53125 58.867188 36.613281 59.066406 36.472656 56.484375 C 36.339844 53.957031 36.523438 51.457031 37.019531 48.976562 C 26.246094 49.875 20.355469 61.863281 25 70.847656 C 25.113281 71.007812 25.203125 71.179688 25.273438 71.363281 C 26.214844 73.011719 27.421875 74.433594 28.898438 75.628906 C 30.882812 77.265625 28.386719 80.296875 26.398438 78.660156 C 25.015625 77.53125 23.8125 76.234375 22.785156 74.769531 C 21.632812 75.582031 20.554688 76.488281 19.554688 77.480469 C 18.550781 78.476562 17.640625 79.546875 16.820312 80.691406 C 15.996094 81.839844 15.277344 83.042969 14.65625 84.3125 C 14.039062 85.578125 13.527344 86.890625 13.128906 88.242188 C 12.726562 89.59375 12.441406 90.96875 12.273438 92.371094 C 12.105469 93.769531 12.050781 95.175781 12.117188 96.582031 C 12.183594 97.992188 12.367188 99.386719 12.667969 100.761719 C 12.964844 102.140625 13.378906 103.484375 13.902344 104.792969 C 14.425781 106.105469 15.058594 107.359375 15.792969 108.5625 C 16.527344 109.769531 17.359375 110.902344 18.285156 111.96875 C 19.207031 113.03125 20.214844 114.011719 21.304688 114.910156 C 22.394531 115.804688 23.550781 116.605469 24.777344 117.308594 C 26 118.007812 27.273438 118.605469 28.597656 119.09375 C 29.921875 119.585938 31.277344 119.960938 32.660156 120.222656 C 34.046875 120.484375 35.449219 120.632812 36.859375 120.660156 C 38.269531 120.6875 39.671875 120.601562 41.070312 120.394531 C 38.324219 118.195312 36.21875 115.496094 34.757812 112.296875 C 33.683594 109.957031 37.253906 108.316406 38.328125 110.664062 C 39.171875 112.519531 40.296875 114.183594 41.699219 115.660156 C 43.101562 117.136719 44.710938 118.34375 46.519531 119.28125 C 46.746094 119.34375 46.957031 119.445312 47.144531 119.589844 C 47.992188 119.996094 48.867188 120.335938 49.769531 120.609375 C 50.667969 120.878906 51.585938 121.082031 52.515625 121.214844 C 53.449219 121.34375 54.382812 121.40625 55.324219 121.394531 C 56.265625 121.382812 57.199219 121.296875 58.128906 121.144531 C 59.054688 120.988281 59.964844 120.761719 60.859375 120.46875 C 61.753906 120.175781 62.617188 119.8125 63.457031 119.386719 C 64.292969 118.960938 65.09375 118.472656 65.859375 117.921875 C 66.621094 117.371094 67.339844 116.765625 68.007812 116.109375 C 68.679688 115.449219 69.296875 114.742188 69.855469 113.988281 C 70.417969 113.234375 70.921875 112.441406 71.359375 111.609375 C 71.800781 110.78125 72.175781 109.921875 72.484375 109.03125 C 72.792969 108.144531 73.03125 107.238281 73.203125 106.3125 C 73.371094 105.386719 73.46875 104.457031 73.496094 103.515625 C 73.523438 102.578125 73.476562 101.640625 73.359375 100.707031 C 73.242188 99.773438 73.054688 98.855469 72.796875 97.953125 C 72.539062 97.046875 72.214844 96.167969 71.820312 95.316406 C 70.753906 92.96875 74.316406 91.332031 75.390625 93.6875 C 76.273438 95.597656 76.875 97.585938 77.195312 99.664062 C 78.164062 99.65625 79.125 99.558594 80.074219 99.367188 C 81.023438 99.171875 81.949219 98.894531 82.84375 98.523438 C 83.738281 98.15625 84.589844 97.703125 85.402344 97.171875 C 86.210938 96.636719 86.960938 96.03125 87.652344 95.355469 C 88.34375 94.675781 88.964844 93.941406 89.515625 93.140625 C 90.066406 92.34375 90.535156 91.503906 90.925781 90.617188 C 91.3125 89.730469 91.613281 88.8125 91.824219 87.867188 C 92.035156 86.921875 92.15625 85.964844 92.183594 84.996094 C 92.242188 82.414062 96.171875 82.511719 96.105469 85.09375 C 96.066406 86.90625 95.769531 88.675781 95.21875 90.402344 C 94.664062 92.128906 93.878906 93.742188 92.859375 95.242188 C 93.4375 95.976562 94.078125 96.648438 94.78125 97.265625 C 95.484375 97.882812 96.238281 98.429688 97.042969 98.90625 C 97.847656 99.386719 98.6875 99.789062 99.566406 100.109375 C 100.441406 100.433594 101.339844 100.675781 102.261719 100.835938 C 103.183594 100.996094 104.113281 101.066406 105.046875 101.058594 C 105.984375 101.046875 106.910156 100.949219 107.828125 100.769531 C 108.746094 100.585938 109.640625 100.324219 110.507812 99.976562 C 111.378906 99.632812 112.207031 99.210938 113 98.714844 L 113.089844 98.664062 C 115.175781 94.792969 117.96875 91.527344 121.476562 88.867188 C 125.09375 86.164062 129.054688 84.128906 133.359375 82.761719 C 134.390625 79.5625 136.03125 76.714844 138.28125 74.21875 C 137.773438 72.832031 137.078125 71.546875 136.199219 70.363281 C 135.320312 69.179688 134.289062 68.140625 133.109375 67.257812 C 131.929688 66.371094 130.648438 65.667969 129.265625 65.15625 C 127.882812 64.640625 126.453125 64.332031 124.980469 64.230469 C 125.144531 65.070312 125.269531 65.925781 125.347656 66.800781 C 125.59375 69.367188 121.667969 69.742188 121.4375 67.167969 C 120.03125 52.289062 105.011719 44.207031 92.441406 48.683594 C 92.378906 48.710938 92.3125 48.734375 92.25 48.75 C 89.453125 49.78125 86.972656 51.324219 84.8125 53.378906 C 82.925781 55.152344 80.230469 52.296875 82.117188 50.515625 C 84.214844 48.527344 86.582031 46.9375 89.214844 45.746094 C 82.84375 29.277344 61.429688 24.105469 48.257812 36.59375 C 45.058594 39.613281 42.804688 43.21875 41.496094 47.417969 C 41.472656 47.542969 41.4375 47.667969 41.386719 47.785156 C 40.574219 50.5625 40.246094 53.394531 40.40625 56.285156 " fill-opacity="1" fill-rule="nonzero"/><path fill="#361d06" d="M 255.816406 67.117188 L 258.847656 60.90625 C 259.015625 60.566406 259.214844 60.242188 259.445312 59.941406 C 259.675781 59.640625 259.9375 59.363281 260.222656 59.113281 C 260.507812 58.859375 260.8125 58.640625 261.140625 58.449219 C 261.472656 58.257812 261.816406 58.101562 262.175781 57.980469 C 262.535156 57.855469 262.902344 57.769531 263.28125 57.71875 C 263.65625 57.667969 264.035156 57.65625 264.414062 57.679688 C 264.792969 57.703125 265.167969 57.765625 265.535156 57.859375 C 265.902344 57.957031 266.257812 58.089844 266.597656 58.257812 C 266.9375 58.425781 267.261719 58.625 267.5625 58.855469 C 267.863281 59.085938 268.140625 59.34375 268.394531 59.625 C 268.644531 59.910156 268.867188 60.21875 269.058594 60.546875 C 269.25 60.875 269.40625 61.21875 269.527344 61.578125 C 269.652344 61.9375 269.738281 62.304688 269.789062 62.683594 C 269.839844 63.058594 269.855469 63.4375 269.832031 63.816406 C 269.808594 64.195312 269.746094 64.566406 269.652344 64.933594 C 269.554688 65.300781 269.421875 65.65625 269.253906 65.996094 L 266.199219 72.261719 C 266.027344 72.601562 265.828125 72.921875 265.597656 73.222656 C 265.363281 73.523438 265.105469 73.796875 264.816406 74.046875 C 264.53125 74.296875 264.222656 74.515625 263.894531 74.703125 C 263.5625 74.894531 263.21875 75.046875 262.859375 75.167969 C 262.496094 75.289062 262.128906 75.375 261.75 75.421875 C 261.375 75.472656 260.996094 75.480469 260.617188 75.457031 C 260.238281 75.429688 259.863281 75.367188 259.496094 75.269531 C 259.132812 75.167969 258.777344 75.035156 258.4375 74.863281 C 258.097656 74.695312 257.777344 74.496094 257.476562 74.261719 C 257.175781 74.03125 256.898438 73.769531 256.648438 73.484375 C 256.398438 73.199219 256.179688 72.890625 255.992188 72.5625 C 255.800781 72.230469 255.648438 71.886719 255.527344 71.527344 C 255.40625 71.167969 255.320312 70.796875 255.273438 70.421875 C 255.222656 70.042969 255.210938 69.667969 255.238281 69.289062 C 255.265625 68.910156 255.328125 68.535156 255.425781 68.167969 C 255.527344 67.800781 255.660156 67.449219 255.832031 67.109375 " fill-opacity="1" fill-rule="nonzero"/><path fill="#ffffff" d="M 262.347656 62.722656 L 259.320312 68.917969 C 258.261719 71.125 261.582031 72.714844 262.640625 70.539062 L 265.699219 64.277344 C 265.8125 64.050781 265.878906 63.816406 265.898438 63.5625 C 265.917969 63.3125 265.886719 63.066406 265.804688 62.828125 C 265.722656 62.589844 265.597656 62.378906 265.429688 62.191406 C 265.261719 62.003906 265.0625 61.859375 264.832031 61.753906 C 264.605469 61.644531 264.363281 61.589844 264.113281 61.582031 C 263.859375 61.574219 263.617188 61.617188 263.382812 61.707031 C 263.148438 61.800781 262.941406 61.933594 262.761719 62.109375 C 262.582031 62.285156 262.445312 62.492188 262.347656 62.722656 " fill-opacity="1" fill-rule="nonzero"/><path fill="#361d06" d="M 62.519531 38.835938 C 63.378906 38.835938 64.226562 38.917969 65.066406 39.085938 C 65.910156 39.25 66.726562 39.496094 67.519531 39.824219 C 68.3125 40.152344 69.0625 40.554688 69.777344 41.027344 C 70.488281 41.503906 71.148438 42.046875 71.757812 42.652344 C 72.363281 43.257812 72.90625 43.914062 73.382812 44.628906 C 73.859375 45.339844 74.261719 46.089844 74.589844 46.882812 C 74.917969 47.675781 75.164062 48.492188 75.332031 49.332031 C 75.5 50.171875 75.582031 51.019531 75.582031 51.875 C 75.582031 52.664062 75.515625 53.441406 75.378906 54.214844 C 75.238281 53.472656 75.039062 52.746094 74.773438 52.035156 C 74.511719 51.328125 74.1875 50.648438 73.804688 49.996094 C 73.421875 49.339844 72.988281 48.726562 72.496094 48.148438 C 72.007812 47.574219 71.472656 47.042969 70.890625 46.558594 C 70.308594 46.074219 69.6875 45.644531 69.03125 45.269531 C 68.375 44.890625 67.691406 44.574219 66.980469 44.316406 C 66.265625 44.058594 65.539062 43.867188 64.792969 43.734375 C 64.046875 43.605469 63.296875 43.539062 62.539062 43.539062 C 61.78125 43.539062 61.03125 43.605469 60.285156 43.734375 C 59.539062 43.867188 58.808594 44.058594 58.097656 44.316406 C 57.386719 44.574219 56.703125 44.890625 56.046875 45.269531 C 55.386719 45.644531 54.769531 46.074219 54.1875 46.558594 C 53.605469 47.042969 53.070312 47.574219 52.578125 48.148438 C 52.089844 48.726562 51.652344 49.339844 51.273438 49.996094 C 50.890625 50.648438 50.566406 51.328125 50.300781 52.035156 C 50.039062 52.746094 49.835938 53.472656 49.699219 54.214844 C 49.558594 53.441406 49.484375 52.664062 49.484375 51.875 C 49.484375 51.019531 49.570312 50.171875 49.738281 49.335938 C 49.902344 48.496094 50.152344 47.679688 50.476562 46.890625 C 50.804688 46.097656 51.207031 45.347656 51.683594 44.636719 C 52.15625 43.925781 52.699219 43.265625 53.300781 42.660156 C 53.90625 42.054688 54.566406 41.515625 55.277344 41.039062 C 55.988281 40.5625 56.742188 40.160156 57.53125 39.832031 C 58.320312 39.503906 59.136719 39.257812 59.976562 39.089844 C 60.816406 38.921875 61.664062 38.835938 62.519531 38.835938 " fill-opacity="1" fill-rule="evenodd"/><path fill="#361d06" d="M 18.378906 99.605469 C 18.046875 98.816406 17.792969 98.003906 17.621094 97.164062 C 17.449219 96.324219 17.359375 95.476562 17.351562 94.621094 C 17.347656 93.765625 17.425781 92.917969 17.585938 92.074219 C 17.746094 91.234375 17.988281 90.417969 18.3125 89.625 C 18.632812 88.832031 19.03125 88.078125 19.5 87.359375 C 19.972656 86.644531 20.507812 85.984375 21.109375 85.375 C 21.710938 84.765625 22.367188 84.21875 23.078125 83.738281 C 23.785156 83.257812 24.535156 82.851562 25.324219 82.519531 C 26.050781 82.207031 26.800781 81.960938 27.570312 81.78125 C 26.9375 82.199219 26.34375 82.664062 25.792969 83.183594 C 25.242188 83.703125 24.738281 84.265625 24.285156 84.871094 C 23.828125 85.476562 23.433594 86.117188 23.089844 86.792969 C 22.746094 87.46875 22.464844 88.167969 22.246094 88.894531 C 22.023438 89.617188 21.867188 90.355469 21.777344 91.109375 C 21.683594 91.859375 21.660156 92.613281 21.699219 93.371094 C 21.738281 94.125 21.84375 94.875 22.011719 95.609375 C 22.183594 96.347656 22.414062 97.066406 22.710938 97.765625 C 23.003906 98.460938 23.359375 99.128906 23.769531 99.765625 C 24.179688 100.402344 24.640625 100.996094 25.15625 101.550781 C 25.671875 102.109375 26.230469 102.613281 26.835938 103.074219 C 27.4375 103.53125 28.074219 103.933594 28.75 104.28125 C 29.421875 104.628906 30.121094 104.914062 30.84375 105.140625 C 31.566406 105.367188 32.304688 105.527344 33.054688 105.625 C 33.808594 105.722656 34.5625 105.757812 35.320312 105.722656 C 36.074219 105.6875 36.824219 105.589844 37.5625 105.425781 C 36.90625 105.855469 36.210938 106.222656 35.488281 106.53125 C 34.699219 106.863281 33.882812 107.117188 33.042969 107.289062 C 32.203125 107.460938 31.355469 107.550781 30.5 107.558594 C 29.640625 107.5625 28.792969 107.484375 27.949219 107.324219 C 27.109375 107.164062 26.289062 106.921875 25.496094 106.601562 C 24.703125 106.277344 23.945312 105.882812 23.230469 105.410156 C 22.515625 104.9375 21.851562 104.402344 21.242188 103.800781 C 20.628906 103.199219 20.085938 102.546875 19.601562 101.835938 C 19.121094 101.128906 18.714844 100.378906 18.378906 99.589844 " fill-opacity="1" fill-rule="evenodd"/><path fill="#361d06" d="M 62.136719 113.050781 C 61.546875 113.308594 60.9375 113.496094 60.304688 113.621094 C 59.675781 113.746094 59.039062 113.796875 58.394531 113.78125 C 57.75 113.765625 57.117188 113.679688 56.492188 113.523438 C 55.867188 113.367188 55.269531 113.144531 54.695312 112.859375 C 54.117188 112.570312 53.582031 112.222656 53.082031 111.820312 C 52.582031 111.414062 52.132812 110.957031 51.734375 110.453125 C 51.335938 109.949219 50.996094 109.410156 50.714844 108.828125 C 50.4375 108.25 50.222656 107.648438 50.074219 107.023438 C 50.359375 107.445312 50.679688 107.839844 51.03125 108.207031 C 51.386719 108.574219 51.769531 108.910156 52.179688 109.210938 C 52.59375 109.511719 53.027344 109.773438 53.484375 110 C 53.941406 110.222656 54.417969 110.40625 54.90625 110.550781 C 55.394531 110.691406 55.894531 110.789062 56.402344 110.847656 C 56.90625 110.902344 57.417969 110.914062 57.925781 110.878906 C 58.433594 110.847656 58.9375 110.769531 59.433594 110.652344 C 59.925781 110.53125 60.410156 110.367188 60.875 110.164062 C 61.34375 109.960938 61.789062 109.714844 62.214844 109.433594 C 62.640625 109.152344 63.035156 108.835938 63.40625 108.484375 C 63.777344 108.132812 64.113281 107.753906 64.414062 107.34375 C 64.71875 106.933594 64.984375 106.5 65.210938 106.042969 C 65.441406 105.589844 65.625 105.117188 65.773438 104.628906 C 65.917969 104.140625 66.019531 103.640625 66.078125 103.136719 C 66.136719 102.628906 66.152344 102.121094 66.121094 101.613281 C 66.089844 101.105469 66.019531 100.601562 65.898438 100.105469 C 66.191406 100.542969 66.4375 101.003906 66.636719 101.488281 C 66.867188 102.015625 67.046875 102.5625 67.167969 103.125 C 67.292969 103.6875 67.359375 104.257812 67.371094 104.835938 C 67.382812 105.410156 67.335938 105.984375 67.234375 106.550781 C 67.132812 107.117188 66.976562 107.667969 66.769531 108.207031 C 66.558594 108.742188 66.296875 109.253906 65.984375 109.738281 C 65.675781 110.226562 65.320312 110.675781 64.917969 111.089844 C 64.519531 111.507812 64.082031 111.878906 63.609375 112.207031 C 63.136719 112.539062 62.636719 112.820312 62.109375 113.050781 " fill-opacity="1" fill-rule="evenodd"/><path fill="#361d06" d="M 110.5625 92.527344 C 109.972656 92.785156 109.363281 92.976562 108.730469 93.101562 C 108.097656 93.222656 107.460938 93.277344 106.820312 93.261719 C 106.175781 93.246094 105.542969 93.160156 104.917969 93.003906 C 104.292969 92.851562 103.691406 92.628906 103.117188 92.339844 C 102.539062 92.054688 102.003906 91.707031 101.503906 91.300781 C 101.003906 90.898438 100.554688 90.441406 100.15625 89.9375 C 99.753906 89.433594 99.414062 88.894531 99.136719 88.3125 C 98.855469 87.734375 98.640625 87.132812 98.492188 86.507812 C 98.777344 86.929688 99.097656 87.324219 99.449219 87.691406 C 99.804688 88.0625 100.1875 88.394531 100.597656 88.695312 C 101.011719 88.996094 101.445312 89.261719 101.902344 89.484375 C 102.363281 89.710938 102.835938 89.894531 103.324219 90.039062 C 103.816406 90.179688 104.316406 90.277344 104.820312 90.335938 C 105.328125 90.390625 105.835938 90.402344 106.347656 90.367188 C 106.855469 90.335938 107.359375 90.257812 107.855469 90.136719 C 108.351562 90.015625 108.832031 89.855469 109.300781 89.648438 C 109.765625 89.445312 110.214844 89.203125 110.640625 88.917969 C 111.0625 88.636719 111.460938 88.320312 111.832031 87.96875 C 112.199219 87.617188 112.539062 87.234375 112.839844 86.824219 C 113.144531 86.414062 113.410156 85.980469 113.636719 85.527344 C 113.863281 85.070312 114.050781 84.597656 114.195312 84.105469 C 114.339844 83.617188 114.441406 83.121094 114.5 82.613281 C 114.558594 82.105469 114.570312 81.597656 114.542969 81.089844 C 114.511719 80.582031 114.4375 80.078125 114.316406 79.582031 C 114.605469 80.023438 114.851562 80.484375 115.054688 80.972656 C 115.285156 81.5 115.460938 82.046875 115.585938 82.609375 C 115.710938 83.171875 115.777344 83.738281 115.789062 84.316406 C 115.800781 84.890625 115.753906 85.464844 115.65625 86.03125 C 115.554688 86.597656 115.398438 87.148438 115.1875 87.683594 C 114.976562 88.222656 114.71875 88.730469 114.40625 89.21875 C 114.097656 89.703125 113.742188 90.152344 113.34375 90.566406 C 112.941406 90.984375 112.507812 91.355469 112.035156 91.683594 C 111.5625 92.015625 111.0625 92.296875 110.53125 92.527344 " fill-opacity="1" fill-rule="evenodd"/><path fill="#361d06" d="M 117.609375 109.371094 C 117.820312 108.539062 118.109375 107.738281 118.476562 106.964844 C 118.847656 106.191406 119.289062 105.464844 119.800781 104.777344 C 120.3125 104.089844 120.886719 103.460938 121.523438 102.886719 C 122.160156 102.3125 122.84375 101.808594 123.582031 101.371094 C 124.316406 100.933594 125.089844 100.570312 125.894531 100.28125 C 126.703125 99.996094 127.53125 99.792969 128.378906 99.667969 C 129.226562 99.542969 130.078125 99.503906 130.933594 99.546875 C 131.789062 99.59375 132.632812 99.71875 133.464844 99.929688 C 134.222656 100.121094 134.960938 100.382812 135.671875 100.707031 C 134.917969 100.65625 134.160156 100.671875 133.40625 100.75 C 132.652344 100.832031 131.914062 100.976562 131.183594 101.183594 C 130.457031 101.394531 129.75 101.664062 129.070312 101.996094 C 128.386719 102.328125 127.742188 102.71875 127.125 103.160156 C 126.511719 103.605469 125.941406 104.101562 125.414062 104.644531 C 124.886719 105.1875 124.410156 105.773438 123.984375 106.402344 C 123.558594 107.027344 123.191406 107.6875 122.882812 108.378906 C 122.570312 109.070312 122.324219 109.78125 122.136719 110.515625 C 121.949219 111.25 121.828125 111.996094 121.773438 112.75 C 121.71875 113.507812 121.726562 114.261719 121.800781 115.015625 C 121.878906 115.769531 122.019531 116.511719 122.222656 117.238281 C 122.425781 117.96875 122.695312 118.675781 123.023438 119.359375 C 123.351562 120.042969 123.734375 120.691406 124.175781 121.308594 C 124.617188 121.921875 125.109375 122.496094 125.648438 123.027344 C 126.191406 123.558594 126.773438 124.039062 127.398438 124.464844 C 128.023438 124.894531 128.679688 125.265625 129.371094 125.582031 C 128.582031 125.53125 127.808594 125.40625 127.042969 125.214844 C 126.210938 125.003906 125.410156 124.714844 124.636719 124.34375 C 123.863281 123.976562 123.132812 123.535156 122.445312 123.023438 C 121.757812 122.511719 121.128906 121.9375 120.554688 121.304688 C 119.980469 120.667969 119.476562 119.980469 119.039062 119.246094 C 118.597656 118.511719 118.234375 117.738281 117.949219 116.933594 C 117.664062 116.125 117.457031 115.296875 117.332031 114.449219 C 117.210938 113.605469 117.171875 112.753906 117.214844 111.898438 C 117.257812 111.042969 117.386719 110.199219 117.59375 109.371094 " fill-opacity="1" fill-rule="evenodd"/><path fill="#361d06" d="M 136.042969 196.585938 C 135.308594 196.238281 134.613281 195.824219 133.964844 195.339844 C 133.3125 194.855469 132.714844 194.316406 132.167969 193.714844 C 131.621094 193.113281 131.140625 192.464844 130.722656 191.769531 C 130.308594 191.074219 129.960938 190.34375 129.6875 189.582031 C 129.414062 188.816406 129.21875 188.035156 129.097656 187.230469 C 128.980469 186.429688 128.941406 185.625 128.980469 184.8125 C 129.019531 184.003906 129.136719 183.207031 129.335938 182.417969 C 129.53125 181.632812 129.804688 180.871094 130.148438 180.140625 C 130.464844 179.460938 130.84375 178.820312 131.277344 178.210938 C 131.09375 178.902344 130.972656 179.609375 130.910156 180.324219 C 130.851562 181.039062 130.851562 181.75 130.914062 182.464844 C 130.976562 183.179688 131.101562 183.882812 131.289062 184.578125 C 131.476562 185.269531 131.71875 185.941406 132.023438 186.589844 C 132.328125 187.242188 132.683594 187.859375 133.09375 188.449219 C 133.503906 189.035156 133.964844 189.582031 134.46875 190.089844 C 134.976562 190.601562 135.523438 191.0625 136.109375 191.472656 C 136.695312 191.886719 137.3125 192.246094 137.960938 192.550781 C 138.613281 192.859375 139.28125 193.105469 139.972656 193.292969 C 140.667969 193.484375 141.371094 193.613281 142.085938 193.679688 C 142.800781 193.746094 143.515625 193.75 144.230469 193.691406 C 144.945312 193.636719 145.648438 193.515625 146.34375 193.335938 C 147.039062 193.15625 147.714844 192.917969 148.367188 192.621094 C 149.019531 192.324219 149.640625 191.972656 150.234375 191.566406 C 150.824219 191.160156 151.378906 190.707031 151.890625 190.207031 C 152.402344 189.703125 152.871094 189.160156 153.289062 188.578125 C 153.105469 189.300781 152.863281 190 152.550781 190.675781 C 152.203125 191.410156 151.789062 192.101562 151.304688 192.753906 C 150.820312 193.402344 150.277344 194 149.675781 194.546875 C 149.074219 195.089844 148.425781 195.570312 147.730469 195.988281 C 147.035156 196.402344 146.304688 196.75 145.539062 197.023438 C 144.777344 197.296875 143.992188 197.492188 143.191406 197.609375 C 142.386719 197.730469 141.582031 197.769531 140.769531 197.730469 C 139.960938 197.691406 139.160156 197.574219 138.375 197.378906 C 137.585938 197.179688 136.828125 196.910156 136.09375 196.5625 " fill-opacity="1" fill-rule="evenodd"/><path fill="#361d06" d="M 187.140625 76.261719 C 187.945312 76.371094 188.730469 76.558594 189.5 76.824219 C 190.265625 77.085938 191 77.421875 191.703125 77.832031 C 192.402344 78.238281 193.058594 78.710938 193.667969 79.25 C 194.277344 79.789062 194.824219 80.378906 195.316406 81.023438 C 195.808594 81.671875 196.234375 82.359375 196.589844 83.085938 C 196.945312 83.816406 197.226562 84.574219 197.433594 85.359375 C 197.640625 86.144531 197.769531 86.941406 197.820312 87.75 C 197.867188 88.558594 197.839844 89.367188 197.730469 90.171875 C 197.628906 90.921875 197.460938 91.65625 197.226562 92.378906 C 197.195312 91.660156 197.101562 90.953125 196.945312 90.25 C 196.792969 89.550781 196.578125 88.867188 196.300781 88.203125 C 196.027344 87.539062 195.695312 86.90625 195.3125 86.300781 C 194.925781 85.695312 194.492188 85.125 194.007812 84.59375 C 193.523438 84.066406 192.996094 83.582031 192.425781 83.140625 C 191.855469 82.703125 191.253906 82.316406 190.617188 81.984375 C 189.980469 81.648438 189.320312 81.375 188.636719 81.15625 C 187.953125 80.9375 187.253906 80.78125 186.542969 80.683594 C 185.828125 80.585938 185.113281 80.550781 184.394531 80.582031 C 183.679688 80.609375 182.96875 80.699219 182.265625 80.847656 C 181.5625 81 180.878906 81.210938 180.214844 81.484375 C 179.546875 81.753906 178.910156 82.082031 178.300781 82.460938 C 177.695312 82.84375 177.121094 83.273438 176.589844 83.757812 C 176.054688 84.238281 175.570312 84.761719 175.125 85.328125 C 174.683594 85.894531 174.296875 86.496094 173.957031 87.128906 C 173.621094 87.761719 173.339844 88.421875 173.117188 89.105469 C 173.085938 88.367188 173.117188 87.628906 173.214844 86.894531 C 173.324219 86.09375 173.511719 85.304688 173.777344 84.539062 C 174.039062 83.773438 174.375 83.039062 174.785156 82.335938 C 175.195312 81.636719 175.667969 80.980469 176.207031 80.371094 C 176.746094 79.765625 177.335938 79.214844 177.984375 78.722656 C 178.628906 78.234375 179.320312 77.808594 180.050781 77.453125 C 180.777344 77.097656 181.535156 76.816406 182.320312 76.609375 C 183.109375 76.402344 183.90625 76.273438 184.714844 76.226562 C 185.527344 76.175781 186.335938 76.207031 187.140625 76.316406 " fill-opacity="1" fill-rule="evenodd"/><path fill="#361d06" d="M 211.816406 122.910156 C 211.378906 123.148438 210.925781 123.34375 210.453125 123.496094 C 209.976562 123.648438 209.492188 123.75 209 123.804688 C 208.503906 123.863281 208.011719 123.871094 207.515625 123.828125 C 207.019531 123.789062 206.53125 123.699219 206.054688 123.5625 C 205.574219 123.425781 205.117188 123.242188 204.671875 123.015625 C 204.230469 122.789062 203.8125 122.523438 203.425781 122.214844 C 203.035156 121.90625 202.675781 121.5625 202.355469 121.183594 C 202.03125 120.804688 201.75 120.398438 201.507812 119.964844 C 201.285156 119.5625 201.097656 119.144531 200.945312 118.707031 C 201.226562 119.046875 201.539062 119.359375 201.871094 119.644531 C 202.207031 119.929688 202.566406 120.183594 202.945312 120.40625 C 203.324219 120.628906 203.722656 120.816406 204.132812 120.96875 C 204.546875 121.125 204.96875 121.242188 205.402344 121.324219 C 205.835938 121.402344 206.273438 121.445312 206.714844 121.453125 C 207.152344 121.457031 207.589844 121.425781 208.027344 121.351562 C 208.460938 121.28125 208.886719 121.175781 209.300781 121.03125 C 209.71875 120.886719 210.117188 120.707031 210.503906 120.492188 C 210.886719 120.277344 211.25 120.03125 211.59375 119.757812 C 211.9375 119.480469 212.25 119.175781 212.542969 118.84375 C 212.832031 118.511719 213.089844 118.15625 213.316406 117.78125 C 213.546875 117.402344 213.738281 117.011719 213.898438 116.601562 C 214.058594 116.191406 214.179688 115.769531 214.265625 115.335938 C 214.355469 114.90625 214.402344 114.46875 214.414062 114.03125 C 214.425781 113.589844 214.398438 113.152344 214.332031 112.71875 C 214.265625 112.28125 214.164062 111.855469 214.023438 111.4375 C 214.320312 111.792969 214.578125 112.167969 214.796875 112.570312 C 215.039062 113.007812 215.234375 113.460938 215.386719 113.933594 C 215.535156 114.40625 215.640625 114.890625 215.695312 115.386719 C 215.75 115.878906 215.757812 116.375 215.71875 116.867188 C 215.675781 117.363281 215.585938 117.851562 215.449219 118.328125 C 215.3125 118.808594 215.132812 119.265625 214.90625 119.710938 C 214.679688 120.152344 214.410156 120.566406 214.101562 120.957031 C 213.792969 121.347656 213.449219 121.703125 213.070312 122.023438 C 212.691406 122.347656 212.285156 122.628906 211.851562 122.875 " fill-opacity="1" fill-rule="evenodd"/><path fill="#361d06" d="M 184.761719 172.539062 C 184.496094 173.304688 184.15625 174.039062 183.746094 174.738281 C 183.339844 175.4375 182.863281 176.09375 182.324219 176.699219 C 181.785156 177.308594 181.195312 177.855469 180.546875 178.347656 C 179.898438 178.835938 179.210938 179.261719 178.480469 179.617188 C 177.75 179.972656 176.992188 180.253906 176.207031 180.457031 C 175.421875 180.664062 174.625 180.792969 173.8125 180.839844 C 173.003906 180.890625 172.195312 180.859375 171.390625 180.75 C 170.585938 180.640625 169.800781 180.453125 169.03125 180.191406 C 168.328125 179.945312 167.652344 179.640625 167 179.277344 C 167.710938 179.386719 168.421875 179.429688 169.140625 179.414062 C 169.859375 179.398438 170.570312 179.320312 171.273438 179.179688 C 171.976562 179.039062 172.664062 178.839844 173.332031 178.582031 C 174.003906 178.320312 174.644531 178.003906 175.257812 177.632812 C 175.871094 177.261719 176.449219 176.839844 176.992188 176.371094 C 177.53125 175.898438 178.027344 175.382812 178.480469 174.824219 C 178.929688 174.265625 179.332031 173.675781 179.679688 173.046875 C 180.027344 172.417969 180.316406 171.765625 180.550781 171.089844 C 180.785156 170.410156 180.960938 169.714844 181.074219 169.007812 C 181.1875 168.300781 181.238281 167.585938 181.226562 166.871094 C 181.214844 166.152344 181.144531 165.441406 181.007812 164.738281 C 180.875 164.03125 180.679688 163.34375 180.425781 162.671875 C 180.171875 162.003906 179.859375 161.359375 179.492188 160.742188 C 179.125 160.125 178.710938 159.542969 178.242188 159 C 177.773438 158.457031 177.261719 157.957031 176.707031 157.5 C 176.152344 157.046875 175.5625 156.640625 174.9375 156.289062 C 175.675781 156.402344 176.398438 156.582031 177.101562 156.828125 C 177.871094 157.089844 178.605469 157.425781 179.304688 157.835938 C 180.007812 158.246094 180.660156 158.71875 181.269531 159.257812 C 181.878906 159.792969 182.425781 160.386719 182.917969 161.03125 C 183.410156 161.679688 183.832031 162.367188 184.1875 163.097656 C 184.542969 163.824219 184.824219 164.582031 185.03125 165.367188 C 185.238281 166.152344 185.367188 166.949219 185.414062 167.761719 C 185.464844 168.570312 185.433594 169.375 185.324219 170.179688 C 185.214844 170.984375 185.027344 171.769531 184.761719 172.539062 " fill-opacity="1" fill-rule="evenodd"/><path fill="#ffd78c" d="M 206.285156 207.558594 L 195.808594 183.332031 C 193.957031 186.078125 191.71875 188.453125 189.082031 190.457031 C 188.796875 190.675781 188.5 190.890625 188.207031 191.097656 L 196.183594 209.75 C 199.570312 209.0625 202.9375 208.328125 206.285156 207.542969 " fill-opacity="1" fill-rule="nonzero"/><path fill="#e6e6e6" d="M 220.652344 240.773438 L 209.851562 215.804688 C 206.5 216.601562 203.128906 217.351562 199.730469 218.058594 L 210.34375 242.785156 C 213.78125 242.164062 217.214844 241.488281 220.652344 240.753906 " fill-opacity="1" fill-rule="nonzero"/><path fill="#ffd78c" d="M 276.53125 313.847656 C 254.261719 313.183594 241.964844 289.996094 241.964844 289.996094 L 224.246094 249.058594 C 220.808594 249.820312 217.359375 250.519531 213.898438 251.15625 L 232.472656 294.574219 C 240.234375 312.726562 253.140625 322.167969 272.914062 315.179688 C 274.121094 314.75 275.328125 314.308594 276.53125 313.867188 " fill-opacity="1" fill-rule="nonzero"/></svg>